<?xml version="1.0" encoding="UTF-8"?><svg xmlns="http://www.w3.org/2000/svg" xmlns:xlink="http://www.w3.org/1999/xlink" contentScriptType="text/ecmascript" width="375pt" zoomAndPan="magnify" contentStyleType="text/css" viewBox="0 0 375 374.999991" height="374.999991pt" preserveAspectRatio="xMidYMid meet" version="1.2"><defs><clipPath xml:id="clip1" id="clip1"><path d="M 85 18.109375 L 132 18.109375 L 132 97 L 85 97 Z M 85 18.109375 "/></clipPath><clipPath xml:id="clip2" id="clip2"><path d="M 137 18.109375 L 184 18.109375 L 184 97 L 137 97 Z M 137 18.109375 "/></clipPath><clipPath xml:id="clip3" id="clip3"><path d="M 189 18.109375 L 304 18.109375 L 304 97 L 189 97 Z M 189 18.109375 "/></clipPath></defs><g xml:id="surface1" id="surface1"><path style=" stroke:none;fill-rule:nonzero;fill:rgb(0%,0%,0%);fill-opacity:1;" d="M 305.039062 121.488281 C 303.722656 119.984375 302.257812 118.632812 300.652344 117.441406 C 299.046875 116.25 297.332031 115.242188 295.507812 114.414062 C 293.6875 113.589844 291.796875 112.964844 289.839844 112.542969 C 287.882812 112.117188 285.90625 111.90625 283.902344 111.90625 L 105.214844 111.90625 C 104.214844 111.90625 103.21875 111.957031 102.226562 112.0625 C 101.234375 112.164062 100.246094 112.324219 99.269531 112.53125 C 98.292969 112.742188 97.332031 113.003906 96.382812 113.316406 C 95.433594 113.628906 94.503906 113.992188 93.597656 114.40625 C 92.6875 114.820312 91.800781 115.277344 90.941406 115.785156 C 90.082031 116.292969 89.25 116.84375 88.449219 117.441406 C 87.648438 118.039062 86.882812 118.675781 86.152344 119.355469 C 85.417969 120.03125 84.726562 120.75 84.070312 121.5 C 83.414062 122.253906 82.800781 123.039062 82.230469 123.859375 C 81.660156 124.675781 81.136719 125.523438 80.65625 126.398438 C 80.175781 127.273438 79.746094 128.171875 79.363281 129.09375 C 78.980469 130.011719 78.644531 130.953125 78.363281 131.910156 C 78.082031 132.863281 77.851562 133.832031 77.675781 134.816406 C 77.496094 135.796875 77.371094 136.785156 77.300781 137.777344 C 77.226562 138.773438 77.210938 139.769531 77.246094 140.765625 C 77.28125 141.761719 77.367188 142.753906 77.511719 143.742188 L 98.441406 292.246094 C 98.75 294.339844 99.289062 296.375 100.054688 298.351562 C 100.820312 300.328125 101.796875 302.195312 102.984375 303.949219 C 104.171875 305.707031 105.539062 307.3125 107.085938 308.761719 C 108.632812 310.214844 110.320312 311.476562 112.152344 312.546875 L 180.523438 351.90625 C 181.582031 352.519531 182.679688 353.0625 183.808594 353.53125 C 184.941406 354 186.097656 354.394531 187.28125 354.714844 C 188.464844 355.03125 189.664062 355.269531 190.878906 355.429688 C 192.09375 355.589844 193.3125 355.671875 194.539062 355.671875 C 195.761719 355.671875 196.984375 355.589844 198.195312 355.429688 C 199.410156 355.269531 200.609375 355.03125 201.792969 354.714844 C 202.976562 354.394531 204.132812 354 205.265625 353.53125 C 206.394531 353.0625 207.492188 352.519531 208.550781 351.90625 L 276.953125 312.503906 C 278.789062 311.4375 280.488281 310.183594 282.039062 308.734375 C 283.59375 307.285156 284.964844 305.683594 286.15625 303.925781 C 287.34375 302.167969 288.324219 300.296875 289.089844 298.320312 C 289.855469 296.339844 290.390625 294.300781 290.695312 292.199219 L 311.636719 143.726562 C 311.910156 141.746094 311.96875 139.757812 311.816406 137.765625 C 311.664062 135.769531 311.300781 133.816406 310.734375 131.898438 C 310.164062 129.980469 309.398438 128.144531 308.441406 126.390625 C 307.480469 124.636719 306.347656 123 305.039062 121.488281 Z M 254.054688 173.257812 L 143.191406 173.257812 L 148.644531 211.925781 L 246.617188 211.925781 C 246.792969 211.953125 246.964844 211.992188 247.132812 212.042969 L 247.585938 212.042969 C 247.886719 212.121094 248.175781 212.226562 248.453125 212.351562 C 248.914062 212.460938 249.359375 212.613281 249.792969 212.808594 C 250.175781 213.023438 250.535156 213.265625 250.878906 213.539062 C 251.242188 213.808594 251.578125 214.113281 251.878906 214.449219 C 252.167969 214.789062 252.417969 215.15625 252.628906 215.550781 C 252.867188 215.9375 253.070312 216.34375 253.230469 216.769531 C 253.359375 217.210938 253.453125 217.660156 253.511719 218.117188 C 253.585938 218.417969 253.640625 218.71875 253.671875 219.027344 L 253.671875 219.527344 C 253.671875 219.527344 253.671875 219.832031 253.671875 220.011719 L 247.160156 266.160156 C 247.011719 267.238281 246.628906 268.226562 246.019531 269.128906 C 245.414062 270.03125 244.636719 270.753906 243.691406 271.296875 L 198.132812 297.539062 C 197.59375 297.847656 197.027344 298.082031 196.429688 298.242188 C 195.832031 298.398438 195.222656 298.480469 194.605469 298.480469 C 193.984375 298.480469 193.375 298.398438 192.777344 298.242188 C 192.179688 298.082031 191.613281 297.847656 191.078125 297.539062 L 145.515625 271.296875 C 144.570312 270.753906 143.796875 270.03125 143.1875 269.128906 C 142.578125 268.226562 142.199219 267.238281 142.046875 266.160156 L 140.03125 251.902344 C 139.949219 251.4375 139.914062 250.964844 139.925781 250.492188 C 139.9375 250.019531 139.996094 249.550781 140.105469 249.089844 C 140.210938 248.625 140.363281 248.179688 140.558594 247.75 C 140.753906 247.316406 140.992188 246.910156 141.273438 246.527344 C 141.550781 246.140625 141.863281 245.789062 142.214844 245.46875 C 142.566406 245.148438 142.941406 244.867188 143.351562 244.621094 C 143.757812 244.378906 144.183594 244.175781 144.632812 244.019531 C 145.078125 243.859375 145.539062 243.746094 146.007812 243.683594 C 146.476562 243.617188 146.949219 243.597656 147.425781 243.625 C 147.898438 243.65625 148.363281 243.730469 148.824219 243.855469 C 149.28125 243.976562 149.722656 244.144531 150.148438 244.355469 C 150.574219 244.566406 150.972656 244.816406 151.347656 245.109375 C 151.722656 245.402344 152.0625 245.726562 152.371094 246.089844 C 152.679688 246.449219 152.949219 246.835938 153.179688 247.25 C 153.40625 247.664062 153.59375 248.097656 153.738281 248.550781 C 153.878906 249.003906 153.976562 249.464844 154.023438 249.9375 L 155.566406 260.792969 L 194.558594 283.164062 L 233.582031 260.675781 L 238.476562 225.964844 L 142.488281 225.964844 C 141.582031 225.960938 140.710938 225.789062 139.871094 225.453125 C 139.59375 225.320312 139.355469 225.113281 139.105469 224.96875 C 138.566406 224.730469 138.078125 224.417969 137.636719 224.03125 C 137.386719 223.773438 137.164062 223.5 136.960938 223.207031 C 136.636719 222.828125 136.355469 222.417969 136.125 221.976562 C 135.984375 221.613281 135.867188 221.25 135.769531 220.875 C 135.640625 220.554688 135.53125 220.226562 135.449219 219.890625 L 128.011719 167.167969 C 127.941406 166.667969 127.925781 166.167969 127.964844 165.667969 C 128.003906 165.164062 128.09375 164.671875 128.238281 164.1875 C 128.382812 163.707031 128.574219 163.242188 128.816406 162.800781 C 129.0625 162.359375 129.347656 161.949219 129.679688 161.570312 C 130.011719 161.1875 130.378906 160.847656 130.785156 160.546875 C 131.1875 160.246094 131.621094 159.988281 132.078125 159.78125 C 132.539062 159.570312 133.015625 159.414062 133.507812 159.304688 C 134.003906 159.199219 134.5 159.144531 135.007812 159.144531 L 254.054688 159.144531 C 254.519531 159.144531 254.980469 159.1875 255.433594 159.277344 C 255.890625 159.367188 256.332031 159.5 256.761719 159.679688 C 257.191406 159.855469 257.601562 160.074219 257.984375 160.332031 C 258.371094 160.585938 258.730469 160.878906 259.058594 161.207031 C 259.386719 161.535156 259.679688 161.890625 259.941406 162.277344 C 260.199219 162.664062 260.417969 163.070312 260.59375 163.5 C 260.773438 163.925781 260.90625 164.367188 260.996094 164.824219 C 261.085938 165.277344 261.132812 165.738281 261.132812 166.199219 C 261.132812 166.664062 261.085938 167.125 260.996094 167.578125 C 260.90625 168.035156 260.773438 168.476562 260.59375 168.902344 C 260.417969 169.332031 260.199219 169.738281 259.941406 170.125 C 259.679688 170.507812 259.386719 170.867188 259.058594 171.195312 C 258.730469 171.519531 258.371094 171.8125 257.984375 172.070312 C 257.601562 172.328125 257.191406 172.546875 256.761719 172.722656 C 256.332031 172.898438 255.890625 173.03125 255.433594 173.125 C 254.980469 173.214844 254.519531 173.257812 254.054688 173.257812 Z M 254.054688 173.257812 "/><g clip-rule="nonzero" clip-path="url(#clip1)"><path style=" stroke:none;fill-rule:nonzero;fill:rgb(0%,0%,0%);fill-opacity:1;" d="M 92.414062 96.503906 C 92.878906 96.503906 93.335938 96.457031 93.792969 96.367188 C 94.246094 96.277344 94.6875 96.144531 95.117188 95.964844 C 95.546875 95.789062 95.953125 95.570312 96.335938 95.3125 C 96.722656 95.058594 97.078125 94.765625 97.40625 94.4375 C 97.734375 94.109375 98.027344 93.753906 98.285156 93.367188 C 98.542969 92.980469 98.757812 92.574219 98.9375 92.148438 C 99.113281 91.71875 99.246094 91.277344 99.335938 90.824219 C 99.425781 90.371094 99.46875 89.910156 99.46875 89.449219 L 99.46875 64.507812 L 117.429688 64.507812 L 117.429688 89.449219 C 117.40625 89.925781 117.433594 90.398438 117.507812 90.867188 C 117.582031 91.339844 117.703125 91.796875 117.871094 92.246094 C 118.039062 92.691406 118.25 93.117188 118.503906 93.519531 C 118.757812 93.925781 119.050781 94.300781 119.378906 94.644531 C 119.710938 94.988281 120.070312 95.296875 120.464844 95.570312 C 120.855469 95.839844 121.273438 96.070312 121.710938 96.257812 C 122.148438 96.445312 122.605469 96.585938 123.070312 96.683594 C 123.539062 96.777344 124.011719 96.824219 124.492188 96.824219 C 124.96875 96.824219 125.441406 96.777344 125.910156 96.683594 C 126.378906 96.585938 126.832031 96.445312 127.269531 96.257812 C 127.710938 96.070312 128.125 95.839844 128.519531 95.570312 C 128.910156 95.296875 129.273438 94.988281 129.601562 94.644531 C 129.933594 94.300781 130.222656 93.925781 130.476562 93.519531 C 130.730469 93.117188 130.941406 92.691406 131.109375 92.246094 C 131.277344 91.796875 131.398438 91.339844 131.472656 90.867188 C 131.546875 90.398438 131.574219 89.925781 131.550781 89.449219 L 131.550781 25.339844 C 131.574219 24.863281 131.546875 24.390625 131.472656 23.917969 C 131.398438 23.449219 131.277344 22.988281 131.109375 22.542969 C 130.941406 22.097656 130.730469 21.671875 130.476562 21.265625 C 130.222656 20.863281 129.933594 20.488281 129.601562 20.144531 C 129.273438 19.800781 128.910156 19.492188 128.519531 19.21875 C 128.125 18.949219 127.710938 18.71875 127.269531 18.53125 C 126.832031 18.34375 126.378906 18.203125 125.910156 18.105469 C 125.441406 18.011719 124.96875 17.960938 124.492188 17.960938 C 124.011719 17.960938 123.539062 18.011719 123.070312 18.105469 C 122.605469 18.203125 122.148438 18.34375 121.710938 18.53125 C 121.273438 18.71875 120.855469 18.949219 120.464844 19.21875 C 120.070312 19.492188 119.710938 19.800781 119.378906 20.144531 C 119.050781 20.488281 118.757812 20.863281 118.503906 21.265625 C 118.25 21.671875 118.039062 22.097656 117.871094 22.542969 C 117.703125 22.988281 117.582031 23.449219 117.507812 23.917969 C 117.433594 24.390625 117.40625 24.863281 117.429688 25.339844 L 117.429688 50.351562 L 99.46875 50.351562 L 99.46875 25.339844 C 99.46875 24.878906 99.421875 24.417969 99.332031 23.964844 C 99.242188 23.507812 99.109375 23.066406 98.929688 22.640625 C 98.753906 22.210938 98.535156 21.804688 98.277344 21.421875 C 98.019531 21.035156 97.726562 20.679688 97.398438 20.351562 C 97.070312 20.023438 96.710938 19.730469 96.328125 19.472656 C 95.941406 19.214844 95.535156 19 95.105469 18.820312 C 94.675781 18.644531 94.234375 18.511719 93.777344 18.417969 C 93.324219 18.328125 92.863281 18.285156 92.398438 18.285156 C 91.933594 18.285156 91.476562 18.328125 91.019531 18.417969 C 90.566406 18.511719 90.121094 18.644531 89.695312 18.820312 C 89.265625 19 88.859375 19.214844 88.472656 19.472656 C 88.085938 19.730469 87.730469 20.023438 87.398438 20.351562 C 87.070312 20.679688 86.777344 21.035156 86.519531 21.421875 C 86.261719 21.804688 86.046875 22.210938 85.867188 22.640625 C 85.691406 23.066406 85.554688 23.507812 85.464844 23.964844 C 85.375 24.417969 85.328125 24.878906 85.328125 25.339844 L 85.328125 89.449219 C 85.328125 89.910156 85.375 90.371094 85.464844 90.828125 C 85.558594 91.28125 85.691406 91.722656 85.871094 92.152344 C 86.046875 92.582031 86.265625 92.988281 86.523438 93.371094 C 86.78125 93.757812 87.078125 94.113281 87.40625 94.441406 C 87.734375 94.769531 88.09375 95.0625 88.480469 95.320312 C 88.867188 95.578125 89.273438 95.792969 89.703125 95.972656 C 90.132812 96.148438 90.578125 96.28125 91.03125 96.371094 C 91.488281 96.460938 91.949219 96.503906 92.414062 96.503906 Z M 92.414062 96.503906 "/></g><g clip-rule="nonzero" clip-path="url(#clip2)"><path style=" stroke:none;fill-rule:nonzero;fill:rgb(0%,0%,0%);fill-opacity:1;" d="M 144.441406 32.398438 L 153.40625 32.398438 L 153.40625 89.449219 C 153.40625 89.910156 153.453125 90.371094 153.542969 90.824219 C 153.632812 91.277344 153.769531 91.71875 153.945312 92.148438 C 154.125 92.578125 154.339844 92.984375 154.597656 93.367188 C 154.855469 93.753906 155.148438 94.109375 155.476562 94.4375 C 155.804688 94.765625 156.164062 95.058594 156.550781 95.316406 C 156.933594 95.574219 157.34375 95.789062 157.769531 95.96875 C 158.199219 96.144531 158.640625 96.277344 159.097656 96.367188 C 159.554688 96.457031 160.011719 96.503906 160.476562 96.503906 C 160.941406 96.503906 161.402344 96.457031 161.855469 96.367188 C 162.3125 96.277344 162.753906 96.144531 163.183594 95.96875 C 163.609375 95.789062 164.019531 95.574219 164.402344 95.316406 C 164.789062 95.058594 165.148438 94.765625 165.476562 94.4375 C 165.804688 94.109375 166.097656 93.753906 166.355469 93.367188 C 166.613281 92.984375 166.832031 92.578125 167.007812 92.148438 C 167.1875 91.71875 167.320312 91.277344 167.410156 90.824219 C 167.5 90.371094 167.546875 89.910156 167.546875 89.449219 L 167.546875 32.398438 L 176.527344 32.398438 C 176.992188 32.398438 177.449219 32.351562 177.90625 32.261719 C 178.359375 32.171875 178.800781 32.035156 179.230469 31.859375 C 179.660156 31.683594 180.066406 31.464844 180.453125 31.207031 C 180.839844 30.949219 181.195312 30.65625 181.523438 30.328125 C 181.851562 30.003906 182.144531 29.644531 182.402344 29.261719 C 182.660156 28.875 182.878906 28.46875 183.058594 28.039062 C 183.234375 27.613281 183.367188 27.171875 183.460938 26.71875 C 183.550781 26.261719 183.59375 25.804688 183.59375 25.339844 C 183.59375 24.878906 183.550781 24.417969 183.460938 23.964844 C 183.367188 23.507812 183.234375 23.066406 183.058594 22.640625 C 182.878906 22.210938 182.660156 21.804688 182.402344 21.421875 C 182.144531 21.035156 181.851562 20.679688 181.523438 20.351562 C 181.195312 20.023438 180.839844 19.730469 180.453125 19.472656 C 180.066406 19.214844 179.660156 19 179.230469 18.820312 C 178.800781 18.644531 178.359375 18.511719 177.90625 18.417969 C 177.449219 18.328125 176.992188 18.285156 176.527344 18.285156 L 144.441406 18.285156 C 143.976562 18.285156 143.519531 18.328125 143.0625 18.417969 C 142.609375 18.511719 142.164062 18.644531 141.738281 18.820312 C 141.308594 19 140.902344 19.214844 140.515625 19.472656 C 140.128906 19.730469 139.769531 20.023438 139.441406 20.351562 C 139.113281 20.679688 138.820312 21.035156 138.5625 21.421875 C 138.304688 21.804688 138.089844 22.210938 137.910156 22.640625 C 137.734375 23.066406 137.597656 23.507812 137.507812 23.964844 C 137.417969 24.417969 137.371094 24.878906 137.371094 25.339844 C 137.371094 25.804688 137.417969 26.261719 137.507812 26.71875 C 137.597656 27.171875 137.734375 27.613281 137.910156 28.039062 C 138.089844 28.46875 138.304688 28.875 138.5625 29.261719 C 138.820312 29.644531 139.113281 30.003906 139.441406 30.328125 C 139.769531 30.65625 140.128906 30.949219 140.515625 31.207031 C 140.902344 31.464844 141.308594 31.683594 141.738281 31.859375 C 142.164062 32.035156 142.609375 32.171875 143.0625 32.261719 C 143.519531 32.351562 143.976562 32.398438 144.441406 32.398438 Z M 144.441406 32.398438 "/></g><g clip-rule="nonzero" clip-path="url(#clip3)"><path style=" stroke:none;fill-rule:nonzero;fill:rgb(0%,0%,0%);fill-opacity:1;" d="M 196.457031 96.503906 C 196.917969 96.503906 197.378906 96.457031 197.832031 96.367188 C 198.289062 96.277344 198.730469 96.144531 199.160156 95.964844 C 199.585938 95.789062 199.992188 95.570312 200.378906 95.3125 C 200.765625 95.058594 201.121094 94.765625 201.449219 94.4375 C 201.777344 94.109375 202.070312 93.753906 202.328125 93.367188 C 202.582031 92.980469 202.800781 92.574219 202.976562 92.148438 C 203.15625 91.71875 203.289062 91.277344 203.378906 90.824219 C 203.46875 90.371094 203.511719 89.910156 203.511719 89.449219 L 203.511719 32.398438 L 223.46875 32.398438 L 223.46875 89.449219 C 223.46875 89.910156 223.515625 90.371094 223.605469 90.824219 C 223.695312 91.277344 223.828125 91.71875 224.007812 92.148438 C 224.183594 92.578125 224.402344 92.984375 224.660156 93.367188 C 224.917969 93.753906 225.210938 94.109375 225.539062 94.4375 C 225.867188 94.765625 226.226562 95.058594 226.609375 95.316406 C 226.996094 95.574219 227.402344 95.789062 227.832031 95.96875 C 228.261719 96.144531 228.703125 96.277344 229.160156 96.367188 C 229.613281 96.457031 230.074219 96.503906 230.539062 96.503906 C 231.003906 96.503906 231.460938 96.457031 231.917969 96.367188 C 232.371094 96.277344 232.816406 96.144531 233.242188 95.96875 C 233.671875 95.789062 234.078125 95.574219 234.464844 95.316406 C 234.851562 95.058594 235.210938 94.765625 235.539062 94.4375 C 235.867188 94.109375 236.160156 93.753906 236.417969 93.367188 C 236.675781 92.984375 236.890625 92.578125 237.070312 92.148438 C 237.246094 91.71875 237.382812 91.277344 237.472656 90.824219 C 237.5625 90.371094 237.609375 89.910156 237.609375 89.449219 L 237.609375 32.398438 L 257.566406 32.398438 L 257.566406 89.449219 C 257.566406 89.910156 257.613281 90.371094 257.703125 90.824219 C 257.792969 91.277344 257.925781 91.71875 258.105469 92.148438 C 258.28125 92.578125 258.5 92.984375 258.757812 93.367188 C 259.015625 93.753906 259.308594 94.109375 259.636719 94.4375 C 259.964844 94.765625 260.324219 95.058594 260.707031 95.316406 C 261.09375 95.574219 261.5 95.789062 261.929688 95.96875 C 262.359375 96.144531 262.800781 96.277344 263.257812 96.367188 C 263.710938 96.457031 264.171875 96.503906 264.636719 96.503906 L 296.734375 96.503906 C 297.199219 96.503906 297.660156 96.460938 298.113281 96.371094 C 298.570312 96.28125 299.011719 96.144531 299.441406 95.96875 C 299.871094 95.792969 300.28125 95.574219 300.664062 95.316406 C 301.050781 95.058594 301.410156 94.765625 301.738281 94.441406 C 302.066406 94.113281 302.359375 93.753906 302.617188 93.371094 C 302.875 92.984375 303.09375 92.578125 303.273438 92.148438 C 303.449219 91.722656 303.585938 91.28125 303.675781 90.824219 C 303.765625 90.371094 303.8125 89.910156 303.8125 89.449219 C 303.8125 88.984375 303.765625 88.523438 303.675781 88.070312 C 303.585938 87.617188 303.449219 87.175781 303.273438 86.746094 C 303.09375 86.316406 302.875 85.910156 302.617188 85.527344 C 302.359375 85.140625 302.066406 84.785156 301.738281 84.457031 C 301.410156 84.128906 301.050781 83.835938 300.664062 83.578125 C 300.28125 83.320312 299.871094 83.105469 299.441406 82.925781 C 299.011719 82.75 298.570312 82.617188 298.113281 82.527344 C 297.660156 82.4375 297.199219 82.390625 296.734375 82.390625 L 271.75 82.390625 L 271.75 25.339844 C 271.75 24.875 271.707031 24.414062 271.613281 23.957031 C 271.523438 23.5 271.390625 23.058594 271.210938 22.628906 C 271.03125 22.199219 270.8125 21.789062 270.554688 21.402344 C 270.292969 21.015625 270 20.660156 269.667969 20.332031 C 269.335938 20.003906 268.976562 19.710938 268.589844 19.453125 C 268.199219 19.195312 267.789062 18.980469 267.355469 18.804688 C 266.925781 18.628906 266.480469 18.496094 266.023438 18.410156 C 265.566406 18.324219 265.101562 18.28125 264.636719 18.285156 L 196.457031 18.285156 C 195.992188 18.285156 195.53125 18.328125 195.074219 18.417969 C 194.617188 18.507812 194.175781 18.640625 193.746094 18.816406 C 193.316406 18.992188 192.90625 19.210938 192.519531 19.46875 C 192.132812 19.726562 191.777344 20.019531 191.449219 20.347656 C 191.117188 20.671875 190.824219 21.03125 190.566406 21.414062 C 190.308594 21.800781 190.089844 22.207031 189.910156 22.636719 C 189.734375 23.066406 189.597656 23.507812 189.507812 23.960938 C 189.417969 24.417969 189.371094 24.875 189.371094 25.339844 L 189.371094 89.449219 C 189.371094 89.910156 189.417969 90.371094 189.507812 90.828125 C 189.597656 91.28125 189.734375 91.722656 189.910156 92.152344 C 190.089844 92.582031 190.308594 92.988281 190.566406 93.371094 C 190.824219 93.757812 191.117188 94.113281 191.449219 94.441406 C 191.777344 94.769531 192.132812 95.0625 192.519531 95.320312 C 192.90625 95.578125 193.316406 95.792969 193.746094 95.972656 C 194.175781 96.148438 194.617188 96.28125 195.074219 96.371094 C 195.53125 96.460938 195.992188 96.503906 196.457031 96.503906 Z M 196.457031 96.503906 "/></g></g></svg>