<?xml version="1.0" encoding="UTF-8"?>
<svg width="1276px" height="899px" viewBox="0 0 1276 899" version="1.1" xmlns="http://www.w3.org/2000/svg" xmlns:xlink="http://www.w3.org/1999/xlink">
    <!-- Generator: Sketch 53.2 (72643) - https://sketchapp.com -->
    <title>estrellas</title>
    <desc>Created with Sketch.</desc>
    <g id="Page-1" stroke="none" stroke-width="1" fill="none" fill-rule="evenodd">
        <g id="/" transform="translate(-4.000000, -105.000000)">
            <g id="estrellas" transform="translate(-234.000000, 51.000000)">
                <g transform="translate(0.000000, 54.000000)">
                    <path d="M1433,319.5004 C1433,320.880895 1431.8809,322 1430.4996,322 C1429.1191,322 1428,320.880895 1428,319.5004 C1428,318.119105 1429.1191,317 1430.4996,317 C1431.8809,317 1433,318.119105 1433,319.5004" id="Fill-1" fill="#FFFFFF"></path>
                    <path d="M1398,309.50048 C1398,310.32843 1397.32843,311 1396.50048,311 C1395.67061,311 1395,310.32843 1395,309.50048 C1395,308.67157 1395.67061,308 1396.50048,308 C1397.32843,308 1398,308.67157 1398,309.50048" id="Fill-3" fill="#FFFFFF"></path>
                    <path d="M1416,237.5 C1416,238.328215 1415.32939,239 1414.50048,239 C1413.67157,239 1413,238.328215 1413,237.5 C1413,236.671785 1413.67157,236 1414.50048,236 C1415.32939,236 1416,236.671785 1416,237.5" id="Fill-5" fill="#FFFFFF"></path>
                    <path d="M1373,257.5 C1373,258.328215 1372.32864,259 1371.5,259 C1370.67136,259 1370,258.328215 1370,257.5 C1370,256.671785 1370.67136,256 1371.5,256 C1372.32864,256 1373,256.671785 1373,257.5" id="Fill-7" fill="#FFFFFF"></path>
                    <path d="M1337,283.49952 C1337,284.32843 1336.32864,285 1335.5,285 C1334.67136,285 1334,284.32843 1334,283.49952 C1334,282.67157 1334.67136,282 1335.5,282 C1336.32864,282 1337,282.67157 1337,283.49952" id="Fill-21" fill="#FFFFFF"></path>
                    <path d="M1317,220.49952 C1317,221.32843 1316.32843,222 1315.50048,222 C1314.67157,222 1314,221.32843 1314,220.49952 C1314,219.67157 1314.67157,219 1315.50048,219 C1316.32843,219 1317,219.67157 1317,220.49952" id="Fill-23" fill="#FFFFFF"></path>
                    <path d="M1158,310.50048 C1158,311.32843 1157.32864,312 1156.50096,312 C1155.67136,312 1155,311.32843 1155,310.50048 C1155,309.67157 1155.67136,309 1156.50096,309 C1157.32864,309 1158,309.67157 1158,310.50048" id="Fill-25" fill="#FFFFFF"></path>
                    <path d="M1463,95.4995203 C1463,96.3284298 1462.32864,97 1461.50096,97 C1460.67136,97 1460,96.3284298 1460,95.4995203 C1460,94.6715702 1460.67136,94 1461.50096,94 C1462.32864,94 1463,94.6715702 1463,95.4995203" id="Fill-35" fill="#FFFFFF"></path>
                    <path d="M1201,63.5 C1201,64.328215 1200.32843,65 1199.50048,65 C1198.67157,65 1198,64.328215 1198,63.5 C1198,62.671785 1198.67157,62 1199.50048,62 C1200.32843,62 1201,62.671785 1201,63.5" id="Fill-37" fill="#FFFFFF"></path>
                    <path d="M1159,82.4995203 C1159,83.3284298 1158.32939,84 1157.50048,84 C1156.67157,84 1156,83.3284298 1156,82.4995203 C1156,81.6715702 1156.67157,81 1157.50048,81 C1158.32939,81 1159,81.6715702 1159,82.4995203" id="Fill-39" fill="#FFFFFF"></path>
                    <path d="M1504,134.49952 C1504,135.32843 1503.32864,136 1502.50096,136 C1501.67136,136 1501,135.32843 1501,134.49952 C1501,133.67157 1501.67136,133 1502.50096,133 C1503.32864,133 1504,133.67157 1504,134.49952" id="Fill-41" fill="#FFFFFF"></path>
                    <path d="M1232,120.49952 C1232,121.32843 1231.32864,122 1230.50096,122 C1229.67136,122 1229,121.32843 1229,120.49952 C1229,119.67157 1229.67136,119 1230.50096,119 C1231.32864,119 1232,119.67157 1232,120.49952" id="Fill-43" fill="#FFFFFF"></path>
                    <path d="M1488,186.49952 C1488,185.67157 1488.67061,185 1489.49952,185 C1490.32843,185 1491,185.67157 1491,186.49952 C1491,187.32843 1490.32843,188 1489.49952,188 C1488.67061,188 1488,187.32843 1488,186.49952" id="Fill-57" fill="#FFFFFF"></path>
                    <path d="M1208,227.50048 C1208,226.67157 1208.67136,226 1209.5,226 C1210.32864,226 1211,226.67157 1211,227.50048 C1211,228.32843 1210.32864,229 1209.5,229 C1208.67136,229 1208,228.32843 1208,227.50048" id="Fill-59" fill="#FFFFFF"></path>
                    <path d="M1471,258.5 C1471,257.671785 1471.67136,257 1472.49904,257 C1473.32864,257 1474,257.671785 1474,258.5 C1474,259.328215 1473.32864,260 1472.49904,260 C1471.67136,260 1471,259.328215 1471,258.5" id="Fill-61" fill="#FFFFFF"></path>
                    <g id="Group-65" transform="translate(1511.000000, 238.000000)">
                        <polygon id="Clip-64" points="0.7407 0.3252 2.123 0.3252 2.123 3.4512 0.7407 3.4512"></polygon>
                        <path d="M0.7407,1.8882 C0.7407,1.0252 1.4407,0.3252 2.3037,0.3252 C3.1687,0.3252 3.8687,1.0252 3.8687,1.8882 C3.8687,2.7512 3.1687,3.4512 2.3037,3.4512 C1.4407,3.4512 0.7407,2.7512 0.7407,1.8882" id="Fill-63" fill="#FFFFFF"></path>
                    </g>
                    <path d="M1169,188.50048 C1169,187.67157 1169.67136,187 1170.5,187 C1171.32864,187 1172,187.67157 1172,188.50048 C1172,189.32843 1171.32864,190 1170.5,190 C1169.67136,190 1169,189.32843 1169,188.50048" id="Fill-66" fill="#FFFFFF"></path>
                    <path d="M1439,202.5 C1439,201.670825 1439.67157,201 1440.49952,201 C1441.32843,201 1442,201.670825 1442,202.5 C1442,203.328215 1441.32843,204 1440.49952,204 C1439.67157,204 1439,203.328215 1439,202.5" id="Fill-68" fill="#FFFFFF"></path>
                    <path d="M1122,214.50048 C1122,213.67157 1122.67061,213 1123.49952,213 C1124.32843,213 1125,213.67157 1125,214.50048 C1125,215.32843 1124.32843,216 1123.49952,216 C1122.67061,216 1122,215.32843 1122,214.50048" id="Fill-70" fill="#FFFFFF"></path>
                    <path d="M1140,275.50048 C1140,274.67157 1140.67136,274 1141.49904,274 C1142.32864,274 1143,274.67157 1143,275.50048 C1143,276.32843 1142.32864,277 1141.49904,277 C1140.67136,277 1140,276.32843 1140,275.50048" id="Fill-72" fill="#FFFFFF"></path>
                    <path d="M1300,186.49952 C1300,185.67157 1300.67136,185 1301.5,185 C1302.32864,185 1303,185.67157 1303,186.49952 C1303,187.32843 1302.32864,188 1301.5,188 C1300.67136,188 1300,187.32843 1300,186.49952" id="Fill-74" fill="#FFFFFF"></path>
                    <path d="M1358,186.49952 C1358,185.67157 1358.67136,185 1359.5,185 C1360.32864,185 1361,185.67157 1361,186.49952 C1361,187.32843 1360.32864,188 1359.5,188 C1358.67136,188 1358,187.32843 1358,186.49952" id="Fill-76" fill="#FFFFFF"></path>
                    <path d="M1373,54.5003997 C1373,53.1191047 1374.1191,52 1375.5004,52 C1376.8801,52 1378,53.1191047 1378,54.5003997 C1378,55.8808953 1376.8801,57 1375.5004,57 C1374.1191,57 1373,55.8808953 1373,54.5003997" id="Fill-78" fill="#FFFFFF"></path>
                    <path d="M1225,28.5 C1225,27.671785 1225.67136,27 1226.5,27 C1227.32864,27 1228,27.671785 1228,28.5 C1228,29.328215 1227.32864,30 1226.5,30 C1225.67136,30 1225,29.328215 1225,28.5" id="Fill-96" fill="#FFFFFF"></path>
                    <path d="M1334,10.5004797 C1334,9.6715702 1334.67136,9 1335.49904,9 C1336.32864,9 1337,9.6715702 1337,10.5004797 C1337,11.3284298 1336.32864,12 1335.49904,12 C1334.67136,12 1334,11.3284298 1334,10.5004797" id="Fill-98" fill="#FFFFFF"></path>
                    <path d="M1144,11.5004797 C1144,10.6715702 1144.67136,10 1145.49904,10 C1146.32864,10 1147,10.6715702 1147,11.5004797 C1147,12.3284298 1146.32864,13 1145.49904,13 C1144.67136,13 1144,12.3284298 1144,11.5004797" id="Fill-100" fill="#FFFFFF"></path>
                    <path d="M1433,668.4996 C1433,669.880895 1431.8809,671 1430.4996,671 C1429.1191,671 1428,669.880895 1428,668.4996 C1428,667.119105 1429.1191,666 1430.4996,666 C1431.8809,666 1433,667.119105 1433,668.4996" id="Fill-102" fill="#FFFFFF"></path>
                    <path d="M1398,658.49952 C1398,659.32843 1397.32843,660 1396.50048,660 C1395.67061,660 1395,659.32843 1395,658.49952 C1395,657.67157 1395.67061,657 1396.50048,657 C1397.32843,657 1398,657.67157 1398,658.49952" id="Fill-104" fill="#FFFFFF"></path>
                    <path d="M1416,585.50048 C1416,586.32843 1415.32939,587 1414.50048,587 C1413.67157,587 1413,586.32843 1413,585.50048 C1413,584.67157 1413.67157,584 1414.50048,584 C1415.32939,584 1416,584.67157 1416,585.50048" id="Fill-106" fill="#FFFFFF"></path>
                    <path d="M1317,568.5 C1317,569.328215 1316.32843,570 1315.50048,570 C1314.67157,570 1314,569.328215 1314,568.5 C1314,567.671785 1314.67157,567 1315.50048,567 C1316.32843,567 1317,567.671785 1317,568.5" id="Fill-124" fill="#FFFFFF"></path>
                    <path d="M1158,658.49952 C1158,659.32843 1157.32864,660 1156.50096,660 C1155.67136,660 1155,659.32843 1155,658.49952 C1155,657.67157 1155.67136,657 1156.50096,657 C1157.32864,657 1158,657.67157 1158,658.49952" id="Fill-126" fill="#FFFFFF"></path>
                    <path d="M1504,483.5 C1504,484.329175 1503.32864,485 1502.50096,485 C1501.67136,485 1501,484.329175 1501,483.5 C1501,482.671785 1501.67136,482 1502.50096,482 C1503.32864,482 1504,482.671785 1504,483.5" id="Fill-142" fill="#FFFFFF"></path>
                    <path d="M1232,467.5 C1232,468.328215 1231.32864,469 1230.50096,469 C1229.67136,469 1229,468.328215 1229,467.5 C1229,466.671785 1229.67136,466 1230.50096,466 C1231.32864,466 1232,466.671785 1232,467.5" id="Fill-144" fill="#FFFFFF"></path>
                    <path d="M1125,485.50048 C1125,486.32843 1124.32843,487 1123.50048,487 C1122.67061,487 1122,486.32843 1122,485.50048 C1122,484.67157 1122.67061,484 1123.50048,484 C1124.32843,484 1125,484.67157 1125,485.50048" id="Fill-146" fill="#FFFFFF"></path>
                    <path d="M1372,484.49952 C1372,485.32843 1371.32843,486 1370.50048,486 C1369.67157,486 1369,485.32843 1369,484.49952 C1369,483.67157 1369.67157,483 1370.50048,483 C1371.32843,483 1372,483.67157 1372,484.49952" id="Fill-148" fill="#FFFFFF"></path>
                    <path d="M1313,484.49952 C1313,485.32843 1312.32843,486 1311.50048,486 C1310.67061,486 1310,485.32843 1310,484.49952 C1310,483.67157 1310.67061,483 1311.50048,483 C1312.32843,483 1313,483.67157 1313,484.49952" id="Fill-150" fill="#FFFFFF"></path>
                    <path d="M1453,523.4996 C1453,522.118305 1454.1191,521 1455.5004,521 C1456.8801,521 1458,522.118305 1458,523.4996 C1458,524.880895 1456.8801,526 1455.5004,526 C1454.1191,526 1453,524.880895 1453,523.4996" id="Fill-152" fill="#FFFFFF"></path>
                    <path d="M1159,577.4996 C1159,576.119105 1160.1191,575 1161.4996,575 C1162.8801,575 1164,576.119105 1164,577.4996 C1164,578.880895 1162.8801,580 1161.4996,580 C1160.1191,580 1159,578.880895 1159,577.4996" id="Fill-154" fill="#FFFFFF"></path>
                    <path d="M1247,514.5 C1247,513.671785 1247.67136,513 1248.49904,513 C1249.32864,513 1250,513.671785 1250,514.5 C1250,515.329175 1249.32864,516 1248.49904,516 C1247.67136,516 1247,515.329175 1247,514.5" id="Fill-156" fill="#FFFFFF"></path>
                    <path d="M1488,534.5 C1488,533.671785 1488.67061,533 1489.49952,533 C1490.32843,533 1491,533.671785 1491,534.5 C1491,535.329175 1490.32843,536 1489.49952,536 C1488.67061,536 1488,535.329175 1488,534.5" id="Fill-158" fill="#FFFFFF"></path>
                    <path d="M1208,575.49952 C1208,574.67157 1208.67136,574 1209.5,574 C1210.32864,574 1211,574.67157 1211,575.49952 C1211,576.32843 1210.32864,577 1209.5,577 C1208.67136,577 1208,576.32843 1208,575.49952" id="Fill-160" fill="#FFFFFF"></path>
                    <path d="M1471,607.5 C1471,606.670825 1471.67136,606 1472.49904,606 C1473.32864,606 1474,606.670825 1474,607.5 C1474,608.328215 1473.32864,609 1472.49904,609 C1471.67136,609 1471,608.328215 1471,607.5" id="Fill-162" fill="#FFFFFF"></path>
                    <g id="Group-166" transform="translate(1511.000000, 585.000000)">
                        <polygon id="Clip-165" points="0.7407 0.3203 2.123 0.3203 2.123 3.4473 0.7407 3.4473"></polygon>
                        <path d="M0.7407,1.8843 C0.7407,1.0203 1.4407,0.3203 2.3037,0.3203 C3.1687,0.3203 3.8687,1.0203 3.8687,1.8843 C3.8687,2.7473 3.1687,3.4473 2.3037,3.4473 C1.4407,3.4473 0.7407,2.7473 0.7407,1.8843" id="Fill-164" fill="#FFFFFF"></path>
                    </g>
                    <path d="M1169,535.49952 C1169,534.67157 1169.67136,534 1170.5,534 C1171.32864,534 1172,534.67157 1172,535.49952 C1172,536.32843 1171.32864,537 1170.5,537 C1169.67136,537 1169,536.32843 1169,535.49952" id="Fill-167" fill="#FFFFFF"></path>
                    <path d="M1439,551.50048 C1439,550.67157 1439.67157,550 1440.49952,550 C1441.32843,550 1442,550.67157 1442,551.50048 C1442,552.32843 1441.32843,553 1440.49952,553 C1439.67157,553 1439,552.32843 1439,551.50048" id="Fill-169" fill="#FFFFFF"></path>
                    <path d="M1122,561.49952 C1122,560.67157 1122.67061,560 1123.49952,560 C1124.32843,560 1125,560.67157 1125,561.49952 C1125,562.32843 1124.32843,563 1123.49952,563 C1122.67061,563 1122,562.32843 1122,561.49952" id="Fill-171" fill="#FFFFFF"></path>
                    <path d="M1140,624.49952 C1140,623.67157 1140.67136,623 1141.49904,623 C1142.32864,623 1143,623.67157 1143,624.49952 C1143,625.32843 1142.32864,626 1141.49904,626 C1140.67136,626 1140,625.32843 1140,624.49952" id="Fill-173" fill="#FFFFFF"></path>
                    <path d="M1300,534.5 C1300,533.671785 1300.67136,533 1301.5,533 C1302.32864,533 1303,533.671785 1303,534.5 C1303,535.329175 1302.32864,536 1301.5,536 C1300.67136,536 1300,535.329175 1300,534.5" id="Fill-175" fill="#FFFFFF"></path>
                    <path d="M1358,534.5 C1358,533.671785 1358.67136,533 1359.5,533 C1360.32864,533 1361,533.671785 1361,534.5 C1361,535.329175 1360.32864,536 1359.5,536 C1358.67136,536 1358,535.329175 1358,534.5" id="Fill-177" fill="#FFFFFF"></path>
                    <path d="M1373,402.4996 C1373,401.119105 1374.1191,400 1375.5004,400 C1376.8801,400 1378,401.119105 1378,402.4996 C1378,403.880895 1376.8801,405 1375.5004,405 C1374.1191,405 1373,403.880895 1373,402.4996" id="Fill-179" fill="#FFFFFF"></path>
                    <path d="M1462,340.49952 C1462,339.67157 1462.67136,339 1463.5,339 C1464.32864,339 1465,339.67157 1465,340.49952 C1465,341.32843 1464.32864,342 1463.5,342 C1462.67136,342 1462,341.32843 1462,340.49952" id="Fill-181" fill="#FFFFFF"></path>
                    <path d="M1372,831.5 C1372,832.329175 1371.32843,833 1370.50048,833 C1369.67157,833 1369,832.329175 1369,831.5 C1369,830.671785 1369.67157,830 1370.50048,830 C1371.32843,830 1372,830.671785 1372,831.5" id="Fill-235" fill="#FFFFFF"></path>
                    <path d="M1313,831.5 C1313,832.329175 1312.32843,833 1311.50048,833 C1310.67061,833 1310,832.329175 1310,831.5 C1310,830.671785 1310.67061,830 1311.50048,830 C1312.32843,830 1313,830.671785 1313,831.5" id="Fill-237" fill="#FFFFFF"></path>
                    <path d="M1453,871.5004 C1453,870.119105 1454.1191,869 1455.5004,869 C1456.8801,869 1458,870.119105 1458,871.5004 C1458,872.881695 1456.8801,874 1455.5004,874 C1454.1191,874 1453,872.881695 1453,871.5004" id="Fill-239" fill="#FFFFFF"></path>
                    <path d="M1247,861.5 C1247,860.671785 1247.67136,860 1248.49904,860 C1249.32864,860 1250,860.671785 1250,861.5 C1250,862.328215 1249.32864,863 1248.49904,863 C1247.67136,863 1247,862.328215 1247,861.5" id="Fill-243" fill="#FFFFFF"></path>
                    <path d="M1488,881.5 C1488,880.671785 1488.67061,880 1489.49952,880 C1490.32843,880 1491,880.671785 1491,881.5 C1491,882.328215 1490.32843,883 1489.49952,883 C1488.67061,883 1488,882.328215 1488,881.5" id="Fill-245" fill="#FFFFFF"></path>
                    <path d="M1169,882.49952 C1169,881.67157 1169.67136,881 1170.5,881 C1171.32864,881 1172,881.67157 1172,882.49952 C1172,883.32843 1171.32864,884 1170.5,884 C1169.67136,884 1169,883.32843 1169,882.49952" id="Fill-254" fill="#FFFFFF"></path>
                    <path d="M1439,898.49952 C1439,897.67157 1439.67157,897 1440.49952,897 C1441.32843,897 1442,897.67157 1442,898.49952 C1442,899.32843 1441.32843,900 1440.49952,900 C1439.67157,900 1439,899.32843 1439,898.49952" id="Fill-256" fill="#FFFFFF"></path>
                    <path d="M1336,735.49952 C1336,734.67157 1336.67157,734 1337.49952,734 C1338.32843,734 1339,734.67157 1339,735.49952 C1339,736.32843 1338.32843,737 1337.49952,737 C1336.67157,737 1336,736.32843 1336,735.49952" id="Fill-275" fill="#FFFFFF"></path>
                    <path d="M1354,797.49952 C1354,796.67157 1354.67136,796 1355.5,796 C1356.32864,796 1357,796.67157 1357,797.49952 C1357,798.32843 1356.32864,799 1355.5,799 C1354.67136,799 1354,798.32843 1354,797.49952" id="Fill-277" fill="#FFFFFF"></path>
                    <path d="M1238,697.5 C1238,696.118926 1239.1191,695 1240.4996,695 C1241.8801,695 1243,696.118926 1243,697.5 C1243,698.881074 1241.8801,700 1240.4996,700 C1239.1191,700 1238,698.881074 1238,697.5" id="Fill-279" fill="#FFFFFF"></path>
                    <path d="M1273,707.5 C1273,706.671785 1273.67136,706 1274.5,706 C1275.32864,706 1276,706.671785 1276,707.5 C1276,708.328215 1275.32864,709 1274.5,709 C1273.67136,709 1273,708.328215 1273,707.5" id="Fill-281" fill="#FFFFFF"></path>
                    <path d="M1256,781.50048 C1256,780.67157 1256.67136,780 1257.49904,780 C1258.32864,780 1259,780.67157 1259,781.50048 C1259,782.32843 1258.32864,783 1257.49904,783 C1256.67136,783 1256,782.32843 1256,781.50048" id="Fill-283" fill="#FFFFFF"></path>
                    <path d="M1298,761.50048 C1298,760.67157 1298.67157,760 1299.49952,760 C1300.32939,760 1301,760.67157 1301,761.50048 C1301,762.32843 1300.32939,763 1299.49952,763 C1298.67157,763 1298,762.32843 1298,761.50048" id="Fill-285" fill="#FFFFFF"></path>
                    <path d="M1225,724.49952 C1225,723.67157 1225.67136,723 1226.5,723 C1227.32864,723 1228,723.67157 1228,724.49952 C1228,725.32843 1227.32864,726 1226.5,726 C1225.67136,726 1225,725.32843 1225,724.49952" id="Fill-287" fill="#FFFFFF"></path>
                    <path d="M1334,706.5 C1334,705.671785 1334.67136,705 1335.49904,705 C1336.32864,705 1337,705.671785 1337,706.5 C1337,707.328215 1336.32864,708 1335.49904,708 C1334.67136,708 1334,707.328215 1334,706.5" id="Fill-289" fill="#FFFFFF"></path>
                    <path d="M1144,707.5 C1144,706.671785 1144.67136,706 1145.49904,706 C1146.32864,706 1147,706.671785 1147,707.5 C1147,708.328215 1146.32864,709 1145.49904,709 C1144.67136,709 1144,708.328215 1144,707.5" id="Fill-291" fill="#FFFFFF"></path>
                    <path d="M1004,319.5004 C1004,320.880895 1002.8809,322 1001.5004,322 C1000.1199,322 999,320.880895 999,319.5004 C999,318.119105 1000.1199,317 1001.5004,317 C1002.8809,317 1004,318.119105 1004,319.5004" id="Fill-293" fill="#FFFFFF"></path>
                    <path d="M781,329.50048 C781,330.32843 780.328645,331 779.500959,331 C778.671355,331 778,330.32843 778,329.50048 C778,328.67157 778.671355,328 779.500959,328 C780.328645,328 781,328.67157 781,329.50048" id="Fill-309" fill="#FFFFFF"></path>
                    <path d="M821,269.49952 C821,270.32843 820.329389,271 819.50048,271 C818.67157,271 818,270.32843 818,269.49952 C818,268.67157 818.67157,268 819.50048,268 C820.329389,268 821,268.67157 821,269.49952" id="Fill-311" fill="#FFFFFF"></path>
                    <path d="M860,308.49952 C860,309.32843 859.329389,310 858.50048,310 C857.67157,310 857,309.32843 857,308.49952 C857,307.67157 857.67157,307 858.50048,307 C859.329389,307 860,307.67157 860,308.49952" id="Fill-313" fill="#FFFFFF"></path>
                    <path d="M907,283.49952 C907,284.32843 906.32843,285 905.50048,285 C904.67157,285 904,284.32843 904,283.49952 C904,282.67157 904.67157,282 905.50048,282 C906.32843,282 907,282.67157 907,283.49952" id="Fill-315" fill="#FFFFFF"></path>
                    <path d="M888,220.49952 C888,221.32843 887.328645,222 886.500959,222 C885.671355,222 885,221.32843 885,220.49952 C885,219.67157 885.671355,219 886.500959,219 C887.328645,219 888,219.67157 888,220.49952" id="Fill-317" fill="#FFFFFF"></path>
                    <path d="M729,310.50048 C729,311.32843 728.328645,312 727.5,312 C726.671355,312 726,311.32843 726,310.50048 C726,309.67157 726.671355,309 727.5,309 C728.328645,309 729,309.67157 729,310.50048" id="Fill-319" fill="#FFFFFF"></path>
                    <path d="M804,120.49952 C804,121.32843 803.329389,122 802.50048,122 C801.67157,122 801,121.32843 801,120.49952 C801,119.67157 801.67157,119 802.50048,119 C803.329389,119 804,119.67157 804,120.49952" id="Fill-337" fill="#FFFFFF"></path>
                    <path d="M1121,108.49952 C1121,109.32843 1120.32864,110 1119.5,110 C1118.67136,110 1118,109.32843 1118,108.49952 C1118,107.67157 1118.67136,107 1119.5,107 C1120.32864,107 1121,107.67157 1121,108.49952" id="Fill-339" fill="#FFFFFF"></path>
                    <path d="M1103,47.4995203 C1103,48.3284298 1102.32864,49 1101.50096,49 C1100.67136,49 1100,48.3284298 1100,47.4995203 C1100,46.6715702 1100.67136,46 1101.50096,46 C1102.32864,46 1103,46.6715702 1103,47.4995203" id="Fill-341" fill="#FFFFFF"></path>
                    <path d="M695,137.5 C695,138.328215 694.328645,139 693.5,139 C692.671355,139 692,138.328215 692,137.5 C692,136.670825 692.671355,136 693.5,136 C694.328645,136 695,136.670825 695,137.5" id="Fill-343" fill="#FFFFFF"></path>
                    <path d="M943,135.50048 C943,136.32843 942.328645,137 941.500959,137 C940.671355,137 940,136.32843 940,135.50048 C940,134.67157 940.671355,134 941.500959,134 C942.328645,134 943,134.67157 943,135.50048" id="Fill-345" fill="#FFFFFF"></path>
                    <path d="M885,135.50048 C885,136.32843 884.328645,137 883.5,137 C882.671355,137 882,136.32843 882,135.50048 C882,134.67157 882.671355,134 883.5,134 C884.328645,134 885,134.67157 885,135.50048" id="Fill-347" fill="#FFFFFF"></path>
                    <path d="M1024,176.4996 C1024,175.119105 1025.11831,174 1026.4996,174 C1027.8801,174 1029,175.119105 1029,176.4996 C1029,177.880895 1027.8801,179 1026.4996,179 C1025.11831,179 1024,177.880895 1024,176.4996" id="Fill-349" fill="#FFFFFF"></path>
                    <path d="M926,101.5 C926,100.670825 926.67157,100 927.49952,100 C928.329389,100 929,100.670825 929,101.5 C929,102.328215 928.329389,103 927.49952,103 C926.67157,103 926,102.328215 926,101.5" id="Fill-385" fill="#FFFFFF"></path>
                    <path d="M1085,11.5004797 C1085,10.6715702 1085.67136,10 1086.49904,10 C1087.32864,10 1088,10.6715702 1088,11.5004797 C1088,12.3284298 1087.32864,13 1086.49904,13 C1085.67136,13 1085,12.3284298 1085,11.5004797" id="Fill-387" fill="#FFFFFF"></path>
                    <path d="M810,2.50039968 C810,1.11910472 811.118926,0 812.5,0 C813.880275,0 815,1.11910472 815,2.50039968 C815,3.88089528 813.880275,5 812.5,5 C811.118926,5 810,3.88089528 810,2.50039968" id="Fill-389" fill="#FFFFFF"></path>
                    <path d="M845,11.5004797 C845,10.6715702 845.671355,10 846.499041,10 C847.328645,10 848,10.6715702 848,11.5004797 C848,12.3284298 847.328645,13 846.499041,13 C845.671355,13 845,12.3284298 845,11.5004797" id="Fill-391" fill="#FFFFFF"></path>
                    <path d="M827,84.5 C827,83.671785 827.67157,83 828.49952,83 C829.32843,83 830,83.671785 830,84.5 C830,85.3291747 829.32843,86 828.49952,86 C827.67157,86 827,85.3291747 827,84.5" id="Fill-393" fill="#FFFFFF"></path>
                    <path d="M868,65.5 C868,64.671785 868.670611,64 869.49952,64 C870.32843,64 871,64.671785 871,65.5 C871,66.328215 870.32843,67 869.49952,67 C868.670611,67 868,66.328215 868,65.5" id="Fill-395" fill="#FFFFFF"></path>
                    <path d="M795,28.5 C795,27.671785 795.671355,27 796.499041,27 C797.328645,27 798,27.671785 798,28.5 C798,29.328215 797.328645,30 796.499041,30 C795.671355,30 795,29.328215 795,28.5" id="Fill-397" fill="#FFFFFF"></path>
                    <path d="M904,10.5004797 C904,9.6715702 904.67157,9 905.49952,9 C906.32843,9 907,9.6715702 907,10.5004797 C907,11.3284298 906.32843,12 905.49952,12 C904.67157,12 904,11.3284298 904,10.5004797" id="Fill-399" fill="#FFFFFF"></path>
                    <path d="M716,11.5004797 C716,10.6715702 716.67157,10 717.49952,10 C718.32843,10 719,10.6715702 719,11.5004797 C719,12.3284298 718.32843,13 717.49952,13 C716.67157,13 716,12.3284298 716,11.5004797" id="Fill-401" fill="#FFFFFF"></path>
                    <path d="M1004,668.4996 C1004,669.880895 1002.8809,671 1001.5004,671 C1000.1199,671 999,669.880895 999,668.4996 C999,667.119105 1000.1199,666 1001.5004,666 C1002.8809,666 1004,667.119105 1004,668.4996" id="Fill-403" fill="#FFFFFF"></path>
                    <path d="M969,658.49952 C969,659.32843 968.328645,660 967.5,660 C966.671355,660 966,659.32843 966,658.49952 C966,657.67157 966.671355,657 967.5,657 C968.328645,657 969,657.67157 969,658.49952" id="Fill-405" fill="#FFFFFF"></path>
                    <path d="M986,585.50048 C986,586.32843 985.32843,587 984.50048,587 C983.670611,587 983,586.32843 983,585.50048 C983,584.67157 983.670611,584 984.50048,584 C985.32843,584 986,584.67157 986,585.50048" id="Fill-407" fill="#FFFFFF"></path>
                    <path d="M945,604.5 C945,605.328215 944.32843,606 943.50048,606 C942.67157,606 942,605.328215 942,604.5 C942,603.670825 942.67157,603 943.50048,603 C944.32843,603 945,603.670825 945,604.5" id="Fill-409" fill="#FFFFFF"></path>
                    <path d="M1018,641.5 C1018,642.328215 1017.32864,643 1016.5,643 C1015.67136,643 1015,642.328215 1015,641.5 C1015,640.671785 1015.67136,640 1016.5,640 C1017.32864,640 1018,640.671785 1018,641.5" id="Fill-411" fill="#FFFFFF"></path>
                    <path d="M909,659.49952 C909,660.32843 908.328645,661 907.500959,661 C906.671355,661 906,660.32843 906,659.49952 C906,658.67157 906.671355,658 907.500959,658 C908.328645,658 909,658.67157 909,659.49952" id="Fill-413" fill="#FFFFFF"></path>
                    <path d="M1099,658.49952 C1099,659.32843 1098.32864,660 1097.50096,660 C1096.67136,660 1096,659.32843 1096,658.49952 C1096,657.67157 1096.67136,657 1097.50096,657 C1098.32864,657 1099,657.67157 1099,658.49952" id="Fill-415" fill="#FFFFFF"></path>
                    <path d="M870,615.4996 C870,616.880895 868.880895,618 867.4996,618 C866.119904,618 865,616.880895 865,615.4996 C865,614.119105 866.119904,613 867.4996,613 C868.880895,613 870,614.119105 870,615.4996" id="Fill-417" fill="#FFFFFF"></path>
                    <path d="M781,677.49952 C781,678.32843 780.328645,679 779.500959,679 C778.671355,679 778,678.32843 778,677.49952 C778,676.67157 778.671355,676 779.500959,676 C780.328645,676 781,676.67157 781,677.49952" id="Fill-419" fill="#FFFFFF"></path>
                    <path d="M821,616.5 C821,617.328215 820.329389,618 819.50048,618 C818.67157,618 818,617.328215 818,616.5 C818,615.671785 818.67157,615 819.50048,615 C820.329389,615 821,615.671785 821,616.5" id="Fill-421" fill="#FFFFFF"></path>
                    <path d="M860,656.5 C860,657.328215 859.329389,658 858.50048,658 C857.67157,658 857,657.328215 857,656.5 C857,655.671785 857.67157,655 858.50048,655 C859.329389,655 860,655.671785 860,656.5" id="Fill-423" fill="#FFFFFF"></path>
                    <path d="M1103,394.5 C1103,395.329175 1102.32864,396 1101.50096,396 C1100.67136,396 1100,395.329175 1100,394.5 C1100,393.671785 1100.67136,393 1101.50096,393 C1102.32864,393 1103,393.671785 1103,394.5" id="Fill-451" fill="#FFFFFF"></path>
                    <path d="M695,485.50048 C695,486.32843 694.328645,487 693.5,487 C692.671355,487 692,486.32843 692,485.50048 C692,484.67157 692.671355,484 693.5,484 C694.328645,484 695,484.67157 695,485.50048" id="Fill-453" fill="#FFFFFF"></path>
                    <path d="M943,484.49952 C943,485.32843 942.328645,486 941.500959,486 C940.671355,486 940,485.32843 940,484.49952 C940,483.67157 940.671355,483 941.500959,483 C942.328645,483 943,483.67157 943,484.49952" id="Fill-455" fill="#FFFFFF"></path>
                    <path d="M885,484.49952 C885,485.32843 884.328645,486 883.5,486 C882.671355,486 882,485.32843 882,484.49952 C882,483.67157 882.671355,483 883.5,483 C884.328645,483 885,483.67157 885,484.49952" id="Fill-457" fill="#FFFFFF"></path>
                    <path d="M1024,523.4996 C1024,522.118305 1025.11831,521 1026.4996,521 C1027.8801,521 1029,522.118305 1029,523.4996 C1029,524.880895 1027.8801,526 1026.4996,526 C1025.11831,526 1024,524.880895 1024,523.4996" id="Fill-459" fill="#FFFFFF"></path>
                    <path d="M729,577.4996 C729,576.119105 730.118305,575 731.4996,575 C732.880096,575 734,576.119105 734,577.4996 C734,578.880895 732.880096,580 731.4996,580 C730.118305,580 729,578.880895 729,577.4996" id="Fill-461" fill="#FFFFFF"></path>
                    <path d="M819,514.5 C819,513.671785 819.67157,513 820.49952,513 C821.32843,513 822,513.671785 822,514.5 C822,515.329175 821.32843,516 820.49952,516 C819.67157,516 819,515.329175 819,514.5" id="Fill-463" fill="#FFFFFF"></path>
                    <path d="M1059,534.5 C1059,533.671785 1059.67136,533 1060.49904,533 C1061.32864,533 1062,533.671785 1062,534.5 C1062,535.329175 1061.32864,536 1060.49904,536 C1059.67136,536 1059,535.329175 1059,534.5" id="Fill-465" fill="#FFFFFF"></path>
                    <path d="M780,575.49952 C780,574.67157 780.671355,574 781.499041,574 C782.328645,574 783,574.67157 783,575.49952 C783,576.32843 782.328645,577 781.499041,577 C780.671355,577 780,576.32843 780,575.49952" id="Fill-467" fill="#FFFFFF"></path>
                    <path d="M1042,607.5 C1042,606.670825 1042.67157,606 1043.49952,606 C1044.32843,606 1045,606.670825 1045,607.5 C1045,608.328215 1044.32843,609 1043.49952,609 C1042.67157,609 1042,608.328215 1042,607.5" id="Fill-469" fill="#FFFFFF"></path>
                    <path d="M1084,587.50048 C1084,586.67157 1084.67157,586 1085.49952,586 C1086.32843,586 1087,586.67157 1087,587.50048 C1087,588.32843 1086.32843,589 1085.49952,589 C1084.67157,589 1084,588.32843 1084,587.50048" id="Fill-471" fill="#FFFFFF"></path>
                    <path d="M739,535.49952 C739,534.67157 739.671355,534 740.499041,534 C741.328645,534 742,534.67157 742,535.49952 C742,536.32843 741.328645,537 740.499041,537 C739.671355,537 739,536.32843 739,535.49952" id="Fill-473" fill="#FFFFFF"></path>
                    <path d="M1011,551.50048 C1011,550.67157 1011.67136,550 1012.5,550 C1013.32864,550 1014,550.67157 1014,551.50048 C1014,552.32843 1013.32864,553 1012.5,553 C1011.67136,553 1011,552.32843 1011,551.50048" id="Fill-475" fill="#FFFFFF"></path>
                    <path d="M692,561.49952 C692,560.67157 692.671355,560 693.499041,560 C694.328645,560 695,560.67157 695,561.49952 C695,562.32843 694.328645,563 693.499041,563 C692.671355,563 692,562.32843 692,561.49952" id="Fill-477" fill="#FFFFFF"></path>
                    <path d="M712,624.49952 C712,623.67157 712.67157,623 713.49952,623 C714.32843,623 715,623.67157 715,624.49952 C715,625.32843 714.32843,626 713.49952,626 C712.67157,626 712,625.32843 712,624.49952" id="Fill-479" fill="#FFFFFF"></path>
                    <path d="M1118,532.5 C1118,531.671785 1118.67136,531 1119.49904,531 C1120.32864,531 1121,531.671785 1121,532.5 C1121,533.328215 1120.32864,534 1119.49904,534 C1118.67136,534 1118,533.328215 1118,532.5" id="Fill-481" fill="#FFFFFF"></path>
                    <path d="M871,534.5 C871,533.671785 871.671355,533 872.499041,533 C873.328645,533 874,533.671785 874,534.5 C874,535.329175 873.328645,536 872.499041,536 C871.671355,536 871,535.329175 871,534.5" id="Fill-483" fill="#FFFFFF"></path>
                    <path d="M930,534.5 C930,533.671785 930.671355,533 931.499041,533 C932.328645,533 933,533.671785 933,534.5 C933,535.329175 932.328645,536 931.499041,536 C930.671355,536 930,535.329175 930,534.5" id="Fill-485" fill="#FFFFFF"></path>
                    <path d="M945,402.4996 C945,401.119105 946.119105,400 947.4996,400 C948.880096,400 950,401.119105 950,402.4996 C950,403.880895 948.880096,405 947.4996,405 C946.119105,405 945,403.880895 945,402.4996" id="Fill-487" fill="#FFFFFF"></path>
                    <path d="M1033,340.49952 C1033,339.67157 1033.67157,339 1034.49952,339 C1035.32939,339 1036,339.67157 1036,340.49952 C1036,341.32843 1035.32939,342 1034.49952,342 C1033.67157,342 1033,341.32843 1033,340.49952" id="Fill-489" fill="#FFFFFF"></path>
                    <path d="M994,400.50048 C994,399.67157 994.671355,399 995.5,399 C996.328645,399 997,399.67157 997,400.50048 C997,401.32843 996.328645,402 995.5,402 C994.671355,402 994,401.32843 994,400.50048" id="Fill-491" fill="#FFFFFF"></path>
                    <path d="M953,361.50048 C953,360.67157 953.671355,360 954.5,360 C955.328645,360 956,360.67157 956,361.50048 C956,362.32843 955.328645,363 954.5,363 C953.671355,363 953,362.32843 953,361.50048" id="Fill-493" fill="#FFFFFF"></path>
                    <path d="M868,414.5 C868,413.670825 868.670611,413 869.49952,413 C870.32843,413 871,413.670825 871,414.5 C871,415.328215 870.32843,416 869.49952,416 C868.670611,416 868,415.328215 868,414.5" id="Fill-507" fill="#FFFFFF"></path>
                    <path d="M795,377.50048 C795,376.67157 795.671355,376 796.499041,376 C797.328645,376 798,376.67157 798,377.50048 C798,378.32843 797.328645,379 796.499041,379 C795.671355,379 795,378.32843 795,377.50048" id="Fill-509" fill="#FFFFFF"></path>
                    <path d="M904,359.49952 C904,358.67157 904.67157,358 905.49952,358 C906.32843,358 907,358.67157 907,359.49952 C907,360.32843 906.32843,361 905.49952,361 C904.67157,361 904,360.32843 904,359.49952" id="Fill-511" fill="#FFFFFF"></path>
                    <path d="M716,360.49952 C716,359.67157 716.67157,359 717.49952,359 C718.32843,359 719,359.67157 719,360.49952 C719,361.32843 718.32843,362 717.49952,362 C716.67157,362 716,361.32843 716,360.49952" id="Fill-513" fill="#FFFFFF"></path>
                    <path d="M790,842.4996 C790,843.880895 788.880895,845 787.5004,845 C786.119904,845 785,843.880895 785,842.4996 C785,841.119105 786.119904,840 787.5004,840 C788.880895,840 790,841.119105 790,842.4996" id="Fill-525" fill="#FFFFFF"></path>
                    <path d="M1084,788.4996 C1084,789.880895 1082.8809,791 1081.5004,791 C1080.1199,791 1079,789.880895 1079,788.4996 C1079,787.118305 1080.1199,786 1081.5004,786 C1082.8809,786 1084,787.118305 1084,788.4996" id="Fill-527" fill="#FFFFFF"></path>
                    <path d="M996,851.5 C996,852.329175 995.328645,853 994.500959,853 C993.671355,853 993,852.329175 993,851.5 C993,850.671785 993.671355,850 994.500959,850 C995.328645,850 996,850.671785 996,851.5" id="Fill-529" fill="#FFFFFF"></path>
                    <path d="M755,831.5 C755,832.329175 754.328645,833 753.5,833 C752.671355,833 752,832.329175 752,831.5 C752,830.671785 752.671355,830 753.5,830 C754.328645,830 755,830.671785 755,831.5" id="Fill-531" fill="#FFFFFF"></path>
                    <path d="M1035,790.5 C1035,791.328215 1034.32864,792 1033.5,792 C1032.67136,792 1032,791.328215 1032,790.5 C1032,789.671785 1032.67136,789 1033.5,789 C1034.32864,789 1035,789.671785 1035,790.5" id="Fill-533" fill="#FFFFFF"></path>
                    <path d="M772,758.50048 C772,759.32843 771.328645,760 770.500959,760 C769.671355,760 769,759.32843 769,758.50048 C769,757.67157 769.671355,757 770.500959,757 C771.328645,757 772,757.67157 772,758.50048" id="Fill-535" fill="#FFFFFF"></path>
                    <path d="M730,778.50048 C730,779.32843 729.32843,780 728.50048,780 C727.670611,780 727,779.32843 727,778.50048 C727,777.67157 727.670611,777 728.50048,777 C729.32843,777 730,777.67157 730,778.50048" id="Fill-537" fill="#FFFFFF"></path>
                    <path d="M1074,830.5 C1074,831.328215 1073.32864,832 1072.5,832 C1071.67136,832 1071,831.328215 1071,830.5 C1071,829.671785 1071.67136,829 1072.5,829 C1073.32864,829 1074,829.671785 1074,830.5" id="Fill-539" fill="#FFFFFF"></path>
                    <path d="M804,814.5 C804,815.328215 803.329389,816 802.50048,816 C801.67157,816 801,815.328215 801,814.5 C801,813.670825 801.67157,813 802.50048,813 C803.329389,813 804,813.670825 804,814.5" id="Fill-541" fill="#FFFFFF"></path>
                    <path d="M1121,804.5 C1121,805.328215 1120.32864,806 1119.5,806 C1118.67136,806 1118,805.328215 1118,804.5 C1118,803.671785 1118.67136,803 1119.5,803 C1120.32864,803 1121,803.671785 1121,804.5" id="Fill-543" fill="#FFFFFF"></path>
                    <path d="M1103,741.5 C1103,742.328215 1102.32864,743 1101.50096,743 C1100.67136,743 1100,742.328215 1100,741.5 C1100,740.671785 1100.67136,740 1101.50096,740 C1102.32864,740 1103,740.671785 1103,741.5" id="Fill-545" fill="#FFFFFF"></path>
                    <path d="M695,833.49952 C695,834.32843 694.328645,835 693.5,835 C692.671355,835 692,834.32843 692,833.49952 C692,832.67157 692.671355,832 693.5,832 C694.328645,832 695,832.67157 695,833.49952" id="Fill-547" fill="#FFFFFF"></path>
                    <path d="M943,831.5 C943,832.329175 942.328645,833 941.500959,833 C940.671355,833 940,832.329175 940,831.5 C940,830.671785 940.671355,830 941.500959,830 C942.328645,830 943,830.671785 943,831.5" id="Fill-549" fill="#FFFFFF"></path>
                    <path d="M885,831.5 C885,832.329175 884.328645,833 883.5,833 C882.671355,833 882,832.329175 882,831.5 C882,830.671785 882.671355,830 883.5,830 C884.328645,830 885,830.671785 885,831.5" id="Fill-551" fill="#FFFFFF"></path>
                    <path d="M1024,871.5004 C1024,870.119105 1025.11831,869 1026.4996,869 C1027.8801,869 1029,870.119105 1029,871.5004 C1029,872.881695 1027.8801,874 1026.4996,874 C1025.11831,874 1024,872.881695 1024,871.5004" id="Fill-553" fill="#FFFFFF"></path>
                    <path d="M819,861.5 C819,860.671785 819.67157,860 820.49952,860 C821.32843,860 822,860.671785 822,861.5 C822,862.328215 821.32843,863 820.49952,863 C819.67157,863 819,862.328215 819,861.5" id="Fill-557" fill="#FFFFFF"></path>
                    <path d="M1059,881.5 C1059,880.671785 1059.67136,880 1060.49904,880 C1061.32864,880 1062,880.671785 1062,881.5 C1062,882.328215 1061.32864,883 1060.49904,883 C1059.67136,883 1059,882.328215 1059,881.5" id="Fill-559" fill="#FFFFFF"></path>
                    <path d="M739,882.49952 C739,881.67157 739.671355,881 740.499041,881 C741.328645,881 742,881.67157 742,882.49952 C742,883.32843 741.328645,884 740.499041,884 C739.671355,884 739,883.32843 739,882.49952" id="Fill-567" fill="#FFFFFF"></path>
                    <path d="M1011,898.49952 C1011,897.67157 1011.67136,897 1012.5,897 C1013.32864,897 1014,897.67157 1014,898.49952 C1014,899.32843 1013.32864,900 1012.5,900 C1011.67136,900 1011,899.32843 1011,898.49952" id="Fill-569" fill="#FFFFFF"></path>
                    <path d="M1118,880.5 C1118,879.670825 1118.67136,879 1119.49904,879 C1120.32864,879 1121,879.670825 1121,880.5 C1121,881.328215 1120.32864,882 1119.49904,882 C1118.67136,882 1118,881.328215 1118,880.5" id="Fill-576" fill="#FFFFFF"></path>
                    <path d="M871,881.5 C871,880.671785 871.671355,880 872.499041,880 C873.328645,880 874,880.671785 874,881.5 C874,882.328215 873.328645,883 872.499041,883 C871.671355,883 871,882.328215 871,881.5" id="Fill-578" fill="#FFFFFF"></path>
                    <path d="M930,881.5 C930,880.671785 930.671355,880 931.499041,880 C932.328645,880 933,880.671785 933,881.5 C933,882.328215 932.328645,883 931.499041,883 C930.671355,883 930,882.328215 930,881.5" id="Fill-580" fill="#FFFFFF"></path>
                    <path d="M945,750.4996 C945,749.118305 946.119105,748 947.4996,748 C948.880096,748 950,749.118305 950,750.4996 C950,751.880895 948.880096,753 947.4996,753 C946.119105,753 945,751.880895 945,750.4996" id="Fill-582" fill="#FFFFFF"></path>
                    <path d="M1033,688.5 C1033,687.671785 1033.67157,687 1034.49952,687 C1035.32939,687 1036,687.671785 1036,688.5 C1036,689.328215 1035.32939,690 1034.49952,690 C1033.67157,690 1033,689.328215 1033,688.5" id="Fill-584" fill="#FFFFFF"></path>
                    <path d="M904,706.5 C904,705.671785 904.67157,705 905.49952,705 C906.32843,705 907,705.671785 907,706.5 C907,707.328215 906.32843,708 905.49952,708 C904.67157,708 904,707.328215 904,706.5" id="Fill-606" fill="#FFFFFF"></path>
                    <path d="M716,707.5 C716,706.671785 716.67157,706 717.49952,706 C718.32843,706 719,706.671785 719,707.5 C719,708.328215 718.32843,709 717.49952,709 C716.67157,709 716,708.328215 716,707.5" id="Fill-608" fill="#FFFFFF"></path>
                    <path d="M576,319.5004 C576,320.880895 574.880895,322 573.4996,322 C572.119904,322 571,320.880895 571,319.5004 C571,318.119105 572.119904,317 573.4996,317 C574.880895,317 576,318.119105 576,319.5004" id="Fill-610" fill="#FFFFFF"></path>
                    <path d="M541,309.50048 C541,310.32843 540.32843,311 539.50048,311 C538.67157,311 538,310.32843 538,309.50048 C538,308.67157 538.67157,308 539.50048,308 C540.32843,308 541,308.67157 541,309.50048" id="Fill-612" fill="#FFFFFF"></path>
                    <path d="M558,237.5 C558,238.328215 557.328645,239 556.5,239 C555.671355,239 555,238.328215 555,237.5 C555,236.671785 555.671355,236 556.5,236 C557.328645,236 558,236.671785 558,237.5" id="Fill-614" fill="#FFFFFF"></path>
                    <path d="M299,310.50048 C299,311.32843 298.32843,312 297.50048,312 C296.67157,312 296,311.32843 296,310.50048 C296,309.67157 296.67157,309 297.50048,309 C298.32843,309 299,309.67157 299,310.50048" id="Fill-636" fill="#FFFFFF"></path>
                    <path d="M693,108.49952 C693,109.32843 692.32843,110 691.50048,110 C690.67157,110 690,109.32843 690,108.49952 C690,107.67157 690.67157,107 691.50048,107 C692.32843,107 693,107.67157 693,108.49952" id="Fill-656" fill="#FFFFFF"></path>
                    <path d="M673,47.4995203 C673,48.3284298 672.328645,49 671.5,49 C670.671355,49 670,48.3284298 670,47.4995203 C670,46.6715702 670.671355,46 671.5,46 C672.328645,46 673,46.6715702 673,47.4995203" id="Fill-658" fill="#FFFFFF"></path>
                    <path d="M350,227.50048 C350,226.67157 350.67157,226 351.49952,226 C352.32843,226 353,226.67157 353,227.50048 C353,228.32843 352.32843,229 351.49952,229 C350.67157,229 350,228.32843 350,227.50048" id="Fill-674" fill="#FFFFFF"></path>
                    <path d="M612,258.5 C612,257.671785 612.671355,257 613.5,257 C614.328645,257 615,257.671785 615,258.5 C615,259.328215 614.328645,260 613.5,260 C612.671355,260 612,259.328215 612,258.5" id="Fill-676" fill="#FFFFFF"></path>
                    <path d="M654,239.5 C654,238.671785 654.671355,238 655.5,238 C656.328645,238 657,238.671785 657,239.5 C657,240.328215 656.328645,241 655.5,241 C654.671355,241 654,240.328215 654,239.5" id="Fill-678" fill="#FFFFFF"></path>
                    <path d="M311,188.50048 C311,187.67157 311.67157,187 312.49952,187 C313.32843,187 314,187.67157 314,188.50048 C314,189.32843 313.32843,190 312.49952,190 C311.67157,190 311,189.32843 311,188.50048" id="Fill-680" fill="#FFFFFF"></path>
                    <path d="M581,202.5 C581,201.670825 581.67157,201 582.49952,201 C583.329389,201 584,201.670825 584,202.5 C584,203.328215 583.329389,204 582.49952,204 C581.67157,204 581,203.328215 581,202.5" id="Fill-682" fill="#FFFFFF"></path>
                    <path d="M264,214.50048 C264,213.67157 264.67157,213 265.49952,213 C266.32843,213 267,213.67157 267,214.50048 C267,215.32843 266.32843,216 265.49952,216 C264.67157,216 264,215.32843 264,214.50048" id="Fill-684" fill="#FFFFFF"></path>
                    <path d="M283,275.50048 C283,274.67157 283.671355,274 284.5,274 C285.328645,274 286,274.67157 286,275.50048 C286,276.32843 285.328645,277 284.5,277 C283.671355,277 283,276.32843 283,275.50048" id="Fill-686" fill="#FFFFFF"></path>
                    <path d="M690,185.49952 C690,184.67157 690.67157,184 691.49952,184 C692.32843,184 693,184.67157 693,185.49952 C693,186.32843 692.32843,187 691.49952,187 C690.67157,187 690,186.32843 690,185.49952" id="Fill-688" fill="#FFFFFF"></path>
                    <path d="M441,186.49952 C441,185.67157 441.67157,185 442.49952,185 C443.32843,185 444,185.67157 444,186.49952 C444,187.32843 443.32843,188 442.49952,188 C441.67157,188 441,187.32843 441,186.49952" id="Fill-690" fill="#FFFFFF"></path>
                    <path d="M501,186.49952 C501,185.67157 501.67157,185 502.49952,185 C503.32843,185 504,185.67157 504,186.49952 C504,187.32843 503.32843,188 502.49952,188 C501.67157,188 501,187.32843 501,186.49952" id="Fill-692" fill="#FFFFFF"></path>
                    <path d="M515,54.5003997 C515,53.1191047 516.119105,52 517.5004,52 C518.880895,52 520,53.1191047 520,54.5003997 C520,55.8808953 518.880895,57 517.5004,57 C516.119105,57 515,55.8808953 515,54.5003997" id="Fill-694" fill="#FFFFFF"></path>
                    <path d="M564,53.5 C564,52.671785 564.67157,52 565.49952,52 C566.329389,52 567,52.671785 567,53.5 C567,54.328215 566.329389,55 565.49952,55 C564.67157,55 564,54.328215 564,53.5" id="Fill-696" fill="#FFFFFF"></path>
                    <path d="M525,13.5 C525,12.671785 525.67157,12 526.49952,12 C527.329389,12 528,12.671785 528,13.5 C528,14.328215 527.329389,15 526.49952,15 C525.67157,15 525,14.328215 525,13.5" id="Fill-698" fill="#FFFFFF"></path>
                    <path d="M478,39.5 C478,38.671785 478.671355,38 479.499041,38 C480.328645,38 481,38.671785 481,39.5 C481,40.328215 480.328645,41 479.499041,41 C478.671355,41 478,40.328215 478,39.5" id="Fill-700" fill="#FFFFFF"></path>
                    <path d="M498,101.5 C498,100.670825 498.670611,100 499.49952,100 C500.32843,100 501,100.670825 501,101.5 C501,102.328215 500.32843,103 499.49952,103 C498.670611,103 498,102.328215 498,101.5" id="Fill-702" fill="#FFFFFF"></path>
                    <path d="M657,11.5004797 C657,10.6715702 657.67157,10 658.49952,10 C659.32843,10 660,10.6715702 660,11.5004797 C660,12.3284298 659.32843,13 658.49952,13 C657.67157,13 657,12.3284298 657,11.5004797" id="Fill-704" fill="#FFFFFF"></path>
                    <path d="M380,2.50039968 C380,1.11910472 381.119105,0 382.5004,0 C383.880096,0 385,1.11910472 385,2.50039968 C385,3.88089528 383.880096,5 382.5004,5 C381.119105,5 380,3.88089528 380,2.50039968" id="Fill-706" fill="#FFFFFF"></path>
                    <path d="M415,11.5004797 C415,10.6715702 415.67157,10 416.49952,10 C417.32843,10 418,10.6715702 418,11.5004797 C418,12.3284298 417.32843,13 416.49952,13 C415.67157,13 415,12.3284298 415,11.5004797" id="Fill-708" fill="#FFFFFF"></path>
                    <path d="M589,641.5 C589,642.328215 588.32843,643 587.50048,643 C586.67157,643 586,642.328215 586,641.5 C586,640.671785 586.67157,640 587.50048,640 C588.32843,640 589,640.671785 589,641.5" id="Fill-728" fill="#FFFFFF"></path>
                    <path d="M481,659.49952 C481,660.32843 480.328645,661 479.5,661 C478.671355,661 478,660.32843 478,659.49952 C478,658.67157 478.671355,658 479.5,658 C480.328645,658 481,658.67157 481,659.49952" id="Fill-730" fill="#FFFFFF"></path>
                    <path d="M669,658.49952 C669,659.32843 668.328645,660 667.5,660 C666.671355,660 666,659.32843 666,658.49952 C666,657.67157 666.671355,657 667.5,657 C668.328645,657 669,657.67157 669,658.49952" id="Fill-732" fill="#FFFFFF"></path>
                    <path d="M441,615.4996 C441,616.880895 439.880895,618 438.4996,618 C437.119105,618 436,616.880895 436,615.4996 C436,614.119105 437.119105,613 438.4996,613 C439.880895,613 441,614.119105 441,615.4996" id="Fill-734" fill="#FFFFFF"></path>
                    <path d="M352,677.49952 C352,678.32843 351.329389,679 350.50048,679 C349.67157,679 349,678.32843 349,677.49952 C349,676.67157 349.67157,676 350.50048,676 C351.329389,676 352,676.67157 352,677.49952" id="Fill-736" fill="#FFFFFF"></path>
                    <path d="M392,616.5 C392,617.328215 391.32843,618 390.50048,618 C389.670611,618 389,617.328215 389,616.5 C389,615.671785 389.670611,615 390.50048,615 C391.32843,615 392,615.671785 392,616.5" id="Fill-738" fill="#FFFFFF"></path>
                    <path d="M431,656.5 C431,657.328215 430.32843,658 429.50048,658 C428.670611,658 428,657.328215 428,656.5 C428,655.671785 428.670611,655 429.50048,655 C430.32843,655 431,655.671785 431,656.5" id="Fill-740" fill="#FFFFFF"></path>
                    <path d="M478,630.5 C478,631.328215 477.328645,632 476.500959,632 C475.671355,632 475,631.328215 475,630.5 C475,629.671785 475.671355,629 476.500959,629 C477.328645,629 478,629.671785 478,630.5" id="Fill-742" fill="#FFFFFF"></path>
                    <path d="M459,568.5 C459,569.328215 458.329389,570 457.50048,570 C456.67157,570 456,569.328215 456,568.5 C456,567.671785 456.67157,567 457.50048,567 C458.329389,567 459,567.671785 459,568.5" id="Fill-744" fill="#FFFFFF"></path>
                    <path d="M299,658.49952 C299,659.32843 298.32843,660 297.50048,660 C296.67157,660 296,659.32843 296,658.49952 C296,657.67157 296.67157,657 297.50048,657 C298.32843,657 299,657.67157 299,658.49952" id="Fill-746" fill="#FFFFFF"></path>
                    <path d="M362,494.5004 C362,495.880895 360.880895,497 359.4996,497 C358.119105,497 357,495.880895 357,494.5004 C357,493.119105 358.119105,492 359.4996,492 C360.880895,492 362,493.119105 362,494.5004" id="Fill-748" fill="#FFFFFF"></path>
                    <path d="M515,484.49952 C515,485.32843 514.329389,486 513.50048,486 C512.67157,486 512,485.32843 512,484.49952 C512,483.67157 512.67157,483 513.50048,483 C514.329389,483 515,483.67157 515,484.49952" id="Fill-772" fill="#FFFFFF"></path>
                    <path d="M455,484.49952 C455,485.32843 454.32843,486 453.50048,486 C452.67157,486 452,485.32843 452,484.49952 C452,483.67157 452.67157,483 453.50048,483 C454.32843,483 455,483.67157 455,484.49952" id="Fill-774" fill="#FFFFFF"></path>
                    <path d="M594,523.4996 C594,522.118305 595.119105,521 596.5004,521 C597.880895,521 599,522.118305 599,523.4996 C599,524.880895 597.880895,526 596.5004,526 C595.119105,526 594,524.880895 594,523.4996" id="Fill-776" fill="#FFFFFF"></path>
                    <path d="M301,577.4996 C301,576.119105 302.119105,575 303.5004,575 C304.880096,575 306,576.119105 306,577.4996 C306,578.880895 304.880096,580 303.5004,580 C302.119105,580 301,578.880895 301,577.4996" id="Fill-778" fill="#FFFFFF"></path>
                    <path d="M390,514.5 C390,513.671785 390.671355,513 391.5,513 C392.328645,513 393,513.671785 393,514.5 C393,515.329175 392.328645,516 391.5,516 C390.671355,516 390,515.329175 390,514.5" id="Fill-780" fill="#FFFFFF"></path>
                    <path d="M631,534.5 C631,533.671785 631.67157,533 632.49952,533 C633.32843,533 634,533.671785 634,534.5 C634,535.329175 633.32843,536 632.49952,536 C631.67157,536 631,535.329175 631,534.5" id="Fill-782" fill="#FFFFFF"></path>
                    <path d="M350,575.49952 C350,574.67157 350.67157,574 351.49952,574 C352.32843,574 353,574.67157 353,575.49952 C353,576.32843 352.32843,577 351.49952,577 C350.67157,577 350,576.32843 350,575.49952" id="Fill-784" fill="#FFFFFF"></path>
                    <path d="M612,607.5 C612,606.670825 612.671355,606 613.5,606 C614.328645,606 615,606.670825 615,607.5 C615,608.328215 614.328645,609 613.5,609 C612.671355,609 612,608.328215 612,607.5" id="Fill-786" fill="#FFFFFF"></path>
                    <path d="M654,587.50048 C654,586.67157 654.671355,586 655.5,586 C656.328645,586 657,586.67157 657,587.50048 C657,588.32843 656.328645,589 655.5,589 C654.671355,589 654,588.32843 654,587.50048" id="Fill-788" fill="#FFFFFF"></path>
                    <path d="M311,535.49952 C311,534.67157 311.67157,534 312.49952,534 C313.32843,534 314,534.67157 314,535.49952 C314,536.32843 313.32843,537 312.49952,537 C311.67157,537 311,536.32843 311,535.49952" id="Fill-790" fill="#FFFFFF"></path>
                    <path d="M581,551.50048 C581,550.67157 581.67157,550 582.49952,550 C583.329389,550 584,550.67157 584,551.50048 C584,552.32843 583.329389,553 582.49952,553 C581.67157,553 581,552.32843 581,551.50048" id="Fill-792" fill="#FFFFFF"></path>
                    <path d="M264,561.49952 C264,560.67157 264.67157,560 265.49952,560 C266.32843,560 267,560.67157 267,561.49952 C267,562.32843 266.32843,563 265.49952,563 C264.67157,563 264,562.32843 264,561.49952" id="Fill-794" fill="#FFFFFF"></path>
                    <path d="M283,624.49952 C283,623.67157 283.671355,623 284.5,623 C285.328645,623 286,623.67157 286,624.49952 C286,625.32843 285.328645,626 284.5,626 C283.671355,626 283,625.32843 283,624.49952" id="Fill-796" fill="#FFFFFF"></path>
                    <path d="M690,532.5 C690,531.671785 690.67157,531 691.49952,531 C692.32843,531 693,531.671785 693,532.5 C693,533.328215 692.32843,534 691.49952,534 C690.67157,534 690,533.328215 690,532.5" id="Fill-798" fill="#FFFFFF"></path>
                    <path d="M441,534.5 C441,533.671785 441.67157,533 442.49952,533 C443.32843,533 444,533.671785 444,534.5 C444,535.329175 443.32843,536 442.49952,536 C441.67157,536 441,535.329175 441,534.5" id="Fill-800" fill="#FFFFFF"></path>
                    <path d="M501,534.5 C501,533.671785 501.67157,533 502.49952,533 C503.32843,533 504,533.671785 504,534.5 C504,535.329175 503.32843,536 502.49952,536 C501.67157,536 501,535.329175 501,534.5" id="Fill-802" fill="#FFFFFF"></path>
                    <path d="M515,402.4996 C515,401.119105 516.119105,400 517.5004,400 C518.880895,400 520,401.119105 520,402.4996 C520,403.880895 518.880895,405 517.5004,405 C516.119105,405 515,403.880895 515,402.4996" id="Fill-804" fill="#FFFFFF"></path>
                    <path d="M605,340.49952 C605,339.67157 605.670611,339 606.49952,339 C607.32843,339 608,339.67157 608,340.49952 C608,341.32843 607.32843,342 606.49952,342 C605.670611,342 605,341.32843 605,340.49952" id="Fill-806" fill="#FFFFFF"></path>
                    <path d="M564,400.50048 C564,399.67157 564.67157,399 565.49952,399 C566.329389,399 567,399.67157 567,400.50048 C567,401.32843 566.329389,402 565.49952,402 C564.67157,402 564,401.32843 564,400.50048" id="Fill-808" fill="#FFFFFF"></path>
                    <path d="M657,360.49952 C657,359.67157 657.67157,359 658.49952,359 C659.32843,359 660,359.67157 660,360.49952 C660,361.32843 659.32843,362 658.49952,362 C657.67157,362 657,361.32843 657,360.49952" id="Fill-816" fill="#FFFFFF"></path>
                    <path d="M380,350.4996 C380,349.119105 381.119105,348 382.5004,348 C383.880096,348 385,349.119105 385,350.4996 C385,351.880895 383.880096,353 382.5004,353 C381.119105,353 380,351.880895 380,350.4996" id="Fill-818" fill="#FFFFFF"></path>
                    <path d="M415,360.49952 C415,359.67157 415.67157,359 416.49952,359 C417.32843,359 418,359.67157 418,360.49952 C418,361.32843 417.32843,362 416.49952,362 C415.67157,362 415,361.32843 415,360.49952" id="Fill-820" fill="#FFFFFF"></path>
                    <path d="M398,432.5 C398,431.671785 398.671355,431 399.5,431 C400.328645,431 401,431.671785 401,432.5 C401,433.328215 400.328645,434 399.5,434 C398.671355,434 398,433.328215 398,432.5" id="Fill-822" fill="#FFFFFF"></path>
                    <path d="M440,414.5 C440,413.670825 440.671355,413 441.499041,413 C442.328645,413 443,413.670825 443,414.5 C443,415.328215 442.328645,416 441.499041,416 C440.671355,416 440,415.328215 440,414.5" id="Fill-824" fill="#FFFFFF"></path>
                    <path d="M367,377.50048 C367,376.67157 367.67157,376 368.49952,376 C369.32843,376 370,376.67157 370,377.50048 C370,378.32843 369.32843,379 368.49952,379 C367.67157,379 367,378.32843 367,377.50048" id="Fill-826" fill="#FFFFFF"></path>
                    <path d="M475,359.49952 C475,358.67157 475.671355,358 476.5,358 C477.328645,358 478,358.67157 478,359.49952 C478,360.32843 477.328645,361 476.5,361 C475.671355,361 475,360.32843 475,359.49952" id="Fill-828" fill="#FFFFFF"></path>
                    <path d="M287,360.49952 C287,359.67157 287.671355,359 288.5,359 C289.328645,359 290,359.67157 290,360.49952 C290,361.32843 289.328645,362 288.5,362 C287.671355,362 287,361.32843 287,360.49952" id="Fill-830" fill="#FFFFFF"></path>
                    <path d="M564,749.49952 C564,748.67157 564.67157,748 565.49952,748 C566.329389,748 567,748.67157 567,749.49952 C567,750.32843 566.329389,751 565.49952,751 C564.67157,751 564,750.32843 564,749.49952" id="Fill-903" fill="#FFFFFF"></path>
                    <path d="M525,709.49952 C525,708.67157 525.67157,708 526.49952,708 C527.329389,708 528,708.67157 528,709.49952 C528,710.32843 527.329389,711 526.49952,711 C525.67157,711 525,710.32843 525,709.49952" id="Fill-905" fill="#FFFFFF"></path>
                    <path d="M478,735.49952 C478,734.67157 478.671355,734 479.499041,734 C480.328645,734 481,734.67157 481,735.49952 C481,736.32843 480.328645,737 479.499041,737 C478.671355,737 478,736.32843 478,735.49952" id="Fill-907" fill="#FFFFFF"></path>
                    <path d="M498,797.49952 C498,796.67157 498.670611,796 499.49952,796 C500.32843,796 501,796.67157 501,797.49952 C501,798.32843 500.32843,799 499.49952,799 C498.670611,799 498,798.32843 498,797.49952" id="Fill-909" fill="#FFFFFF"></path>
                    <path d="M657,707.5 C657,706.671785 657.67157,706 658.49952,706 C659.32843,706 660,706.671785 660,707.5 C660,708.328215 659.32843,709 658.49952,709 C657.67157,709 657,708.328215 657,707.5" id="Fill-911" fill="#FFFFFF"></path>
                    <path d="M380,697.5 C380,696.118926 381.119105,695 382.5004,695 C383.880096,695 385,696.118926 385,697.5 C385,698.881074 383.880096,700 382.5004,700 C381.119105,700 380,698.881074 380,697.5" id="Fill-913" fill="#FFFFFF"></path>
                    <path d="M415,707.5 C415,706.671785 415.67157,706 416.49952,706 C417.32843,706 418,706.671785 418,707.5 C418,708.328215 417.32843,709 416.49952,709 C415.67157,709 415,708.328215 415,707.5" id="Fill-915" fill="#FFFFFF"></path>
                    <path d="M398,781.50048 C398,780.67157 398.671355,780 399.5,780 C400.328645,780 401,780.67157 401,781.50048 C401,782.32843 400.328645,783 399.5,783 C398.671355,783 398,782.32843 398,781.50048" id="Fill-917" fill="#FFFFFF"></path>
                    <path d="M440,761.50048 C440,760.67157 440.671355,760 441.499041,760 C442.328645,760 443,760.67157 443,761.50048 C443,762.32843 442.328645,763 441.499041,763 C440.671355,763 440,762.32843 440,761.50048" id="Fill-919" fill="#FFFFFF"></path>
                    <path d="M367,724.49952 C367,723.67157 367.67157,723 368.49952,723 C369.32843,723 370,723.67157 370,724.49952 C370,725.32843 369.32843,726 368.49952,726 C367.67157,726 367,725.32843 367,724.49952" id="Fill-921" fill="#FFFFFF"></path>
                    <path d="M475,706.5 C475,705.671785 475.671355,705 476.5,705 C477.328645,705 478,705.671785 478,706.5 C478,707.328215 477.328645,708 476.5,708 C475.671355,708 475,707.328215 475,706.5" id="Fill-923" fill="#FFFFFF"></path>
                    <path d="M287,707.5 C287,706.671785 287.671355,706 288.5,706 C289.328645,706 290,706.671785 290,707.5 C290,708.328215 289.328645,709 288.5,709 C287.671355,709 287,708.328215 287,707.5" id="Fill-925" fill="#FFFFFF"></path>
                    <path d="M261,532.5 C261,531.671785 261.671355,531 262.5,531 C263.328645,531 264,531.671785 264,532.5 C264,533.328215 263.328645,534 262.5,534 C261.671355,534 261,533.328215 261,532.5" id="Fill-1045" fill="#FFFFFF"></path>
                    <path d="M264,804.5 C264,805.328215 263.328645,806 262.500959,806 C261.671355,806 261,805.328215 261,804.5 C261,803.671785 261.671355,803 262.500959,803 C263.328645,803 264,803.671785 264,804.5" id="Fill-1085" fill="#FFFFFF"></path>
                    <path d="M244,741.5 C244,742.328215 243.32843,743 242.50048,743 C241.67157,743 241,742.328215 241,741.5 C241,740.671785 241.67157,740 242.50048,740 C243.32843,740 244,740.671785 244,741.5" id="Fill-1087" fill="#FFFFFF"></path>
                    <path d="M261,880.5 C261,879.670825 261.671355,879 262.5,879 C263.328645,879 264,879.670825 264,880.5 C264,881.328215 263.328645,882 262.5,882 C261.671355,882 261,881.328215 261,880.5" id="Fill-1103" fill="#FFFFFF"></path>
                </g>
            </g>
        </g>
    </g>
</svg>