<?xml version="1.0" encoding="UTF-8"?><svg xmlns="http://www.w3.org/2000/svg" xmlns:xlink="http://www.w3.org/1999/xlink" contentScriptType="text/ecmascript" width="375pt" zoomAndPan="magnify" contentStyleType="text/css" viewBox="0 0 375 262.499992" height="262.499992pt" preserveAspectRatio="xMidYMid meet" version="1.2"><defs><clipPath xml:id="clip1" id="clip1"><path d="M 87.875 31.375 L 286.867188 31.375 L 286.867188 230.367188 L 87.875 230.367188 Z M 87.875 31.375 "/></clipPath></defs><g xml:id="surface1" id="surface1"><g clip-rule="nonzero" clip-path="url(#clip1)"><path style=" stroke:none;fill-rule:nonzero;fill:rgb(100%,83.918762%,0%);fill-opacity:1;" d="M 87.875 31.375 L 286.867188 31.375 L 286.867188 230.367188 L 87.875 230.367188 Z M 87.875 31.375 "/></g><path style=" stroke:none;fill-rule:nonzero;fill:currentColor;fill-opacity:1;" d="M 217.984375 180.328125 C 221.808594 186.539062 225.964844 192.492188 234.769531 192.492188 C 242.164062 192.492188 246.046875 188.816406 246.046875 183.730469 C 246.046875 177.644531 242.035156 175.484375 233.898438 171.941406 L 229.4375 170.039062 C 216.5625 164.578125 208 157.734375 208 143.28125 C 208 129.960938 218.199219 119.820312 234.132812 119.820312 C 245.484375 119.820312 253.636719 123.753906 259.515625 134.042969 L 245.621094 142.925781 C 242.5625 137.464844 239.257812 135.316406 234.132812 135.316406 C 228.90625 135.316406 225.59375 138.617188 225.59375 142.925781 C 225.59375 148.257812 228.910156 150.410156 236.566406 153.710938 L 241.027344 155.613281 C 256.199219 162.074219 264.757812 168.675781 264.757812 183.511719 C 264.757812 199.496094 252.132812 208.257812 235.183594 208.257812 C 218.609375 208.257812 209.195312 199.9375 203.953125 189.640625 Z M 153.941406 180.78125 C 156.738281 185.789062 160.988281 189.640625 167.101562 189.640625 C 172.949219 189.640625 176.316406 187.332031 176.316406 178.347656 L 176.316406 119.816406 L 194.738281 119.816406 L 194.738281 181.179688 C 194.738281 199.789062 183.945312 208.257812 168.179688 208.257812 C 153.933594 208.257812 143.652344 198.605469 139.464844 189.640625 Z M 153.941406 180.78125 "/></g></svg>