<?xml version="1.0" encoding="UTF-8"?><svg xmlns="http://www.w3.org/2000/svg" xmlns:xlink="http://www.w3.org/1999/xlink" contentScriptType="text/ecmascript" width="375pt" zoomAndPan="magnify" contentStyleType="text/css" viewBox="0 0 375 149.999998" height="149.999998pt" preserveAspectRatio="xMidYMid meet" version="1.2"><defs><clipPath xml:id="clip1" id="clip1"><path d="M 59 91 L 166 91 L 166 142.390625 L 59 142.390625 Z M 59 91 "/></clipPath></defs><g xml:id="surface1" id="surface1"><g clip-rule="nonzero" clip-path="url(#clip1)"><path style=" stroke:none;fill-rule:nonzero;fill:rgb(0%,38.038635%,54.119873%);fill-opacity:1;" d="M 59.902344 130.730469 L 68.320312 130.730469 L 68.320312 97.578125 L 81.355469 126.492188 C 82.890625 129.976562 85 131.226562 89.125 131.226562 C 93.253906 131.226562 95.277344 129.988281 96.816406 126.492188 L 109.851562 97.578125 L 109.851562 130.742188 L 118.273438 130.742188 L 118.273438 97.632812 C 118.273438 94.402344 116.976562 92.839844 114.304688 92.035156 C 107.910156 90.042969 103.617188 91.765625 101.675781 96.074219 L 88.886719 124.605469 L 76.496094 96.058594 C 74.636719 91.753906 70.265625 90.03125 63.871094 92.023438 C 61.195312 92.828125 59.902344 94.390625 59.902344 97.621094 Z M 125.273438 103.738281 L 133.6875 103.738281 L 133.6875 122.011719 C 133.609375 123.003906 134.007812 125.332031 138.621094 125.40625 C 140.972656 125.441406 156.78125 125.40625 156.929688 125.40625 L 156.929688 103.648438 L 165.363281 103.648438 C 165.402344 103.648438 165.355469 133.3125 165.355469 133.441406 C 165.402344 140.757812 156.253906 142.347656 152.039062 142.46875 L 125.453125 142.46875 L 125.453125 136.820312 L 152.085938 136.816406 C 157.503906 136.246094 156.867188 133.558594 156.867188 132.65625 L 156.867188 130.453125 L 138.972656 130.453125 C 130.644531 130.378906 125.34375 126.75 125.277344 122.582031 C 125.273438 122.207031 125.457031 103.917969 125.273438 103.738281 Z M 125.273438 103.738281 "/></g><path style=" stroke:none;fill-rule:nonzero;fill:rgb(89.408875%,55.688477%,0%);fill-opacity:1;" d="M 171.855469 130.730469 L 196.058594 130.730469 C 198.890625 130.730469 201.648438 130.140625 203.835938 129.117188 C 207.476562 127.449219 209.257812 125.1875 209.257812 122.222656 L 209.257812 116.089844 C 209.257812 113.664062 207.234375 111.402344 203.269531 109.898438 C 201.164062 109.085938 198.574219 108.65625 196.0625 108.65625 L 185.863281 108.65625 C 182.464844 108.65625 180.84375 107.636719 180.4375 105.375 C 180.359375 105.105469 180.359375 104.875 180.359375 104.621094 L 180.359375 100.800781 C 180.359375 100.582031 180.359375 100.367188 180.4375 100.097656 C 180.84375 98.375 181.734375 97.890625 184.730469 97.609375 C 184.972656 97.609375 185.296875 97.554688 185.539062 97.554688 L 209.585938 97.554688 L 209.585938 91.957031 L 185.945312 91.957031 C 182.542969 91.957031 180.765625 92.171875 179.144531 92.65625 C 174.117188 94.21875 171.929688 96.707031 171.929688 101.015625 L 171.929688 105.914062 C 171.929688 109.683594 176.222656 112.914062 183.425781 113.664062 C 184.238281 113.71875 185.046875 113.773438 185.855469 113.773438 L 194.597656 113.773438 C 194.921875 113.773438 195.246094 113.773438 195.488281 113.828125 C 198.160156 114.042969 199.296875 114.527344 200.105469 115.496094 C 200.601562 115.992188 200.753906 116.464844 200.753906 116.988281 L 200.753906 121.886719 C 200.753906 122.480469 200.347656 123.234375 199.539062 123.878906 C 198.808594 124.527344 197.597656 124.957031 195.976562 125.066406 C 195.652344 125.066406 195.410156 125.117188 195.085938 125.117188 L 171.851562 125.117188 L 171.851562 130.71875 Z M 261.78125 120.988281 C 261.78125 126.746094 266.070312 129.976562 274.730469 130.625 C 275.539062 130.6875 276.351562 130.722656 277.160156 130.730469 L 299.101562 130.730469 L 299.101562 125.132812 L 277 125.132812 C 272.058594 125.132812 270.199219 123.894531 270.199219 120.933594 L 270.199219 91.96875 L 261.777344 91.96875 L 261.777344 120.984375 Z M 214.628906 121.277344 L 214.628906 101.320312 C 214.628906 96.25 218.199219 93.171875 225.257812 92.203125 C 226.007812 92.09375 226.765625 92.039062 227.527344 92.039062 L 243.507812 92.039062 C 244.296875 92.039062 245.082031 92.09375 245.863281 92.203125 C 252.921875 93.171875 256.488281 96.246094 256.488281 101.320312 L 256.488281 121.277344 C 256.488281 125.390625 254.972656 127.59375 251.480469 129.03125 L 259.773438 136.496094 L 249.996094 136.496094 L 243.289062 130.457031 L 236.53125 130.882812 L 227.527344 130.882812 C 225.988281 130.882812 224.363281 130.667969 222.578125 130.179688 C 217.214844 128.726562 214.628906 125.917969 214.628906 121.277344 Z M 223.71875 120.78125 C 223.71875 121.050781 223.796875 121.320312 223.878906 121.644531 C 224.378906 123.964844 226.554688 125.257812 229.871094 125.257812 L 237.519531 125.257812 L 230.492188 118.933594 L 240.269531 118.933594 L 246.382812 124.449219 C 247.511719 123.851562 248.253906 122.929688 248.503906 121.753906 C 248.585938 121.484375 248.585938 121.214844 248.585938 120.945312 L 248.585938 101.804688 C 248.585938 101.589844 248.585938 101.308594 248.503906 101.050781 C 248.003906 98.894531 245.828125 97.652344 242.582031 97.652344 L 229.890625 97.652344 C 226.148438 97.652344 223.726562 99.269531 223.726562 101.804688 L 223.726562 120.796875 Z M 223.71875 120.78125 "/><path style=" stroke:none;fill-rule:nonzero;fill:rgb(0%,38.038635%,54.119873%);fill-opacity:1;" d="M 306.503906 82.679688 C 301.328125 82.539062 297.375 83.019531 293.992188 84.441406 C 293.03125 84.84375 291.503906 84.855469 291.34375 86.054688 C 291.871094 86.609375 291.957031 87.429688 292.375 88.109375 C 293.183594 89.414062 294.546875 91.160156 295.757812 92.074219 C 297.085938 93.074219 298.457031 94.144531 299.882812 95.011719 C 302.414062 96.550781 305.242188 97.433594 307.679688 98.972656 C 309.117188 99.882812 310.546875 101.027344 311.949219 102.054688 C 312.640625 102.5625 313.109375 103.351562 314.007812 103.671875 L 314.007812 103.523438 C 313.53125 102.921875 313.410156 102.097656 312.976562 101.46875 L 311.066406 99.5625 C 309.191406 97.070312 306.820312 94.910156 304.296875 93.101562 C 302.28125 91.660156 297.777344 89.714844 296.9375 87.375 L 296.789062 87.230469 C 298.214844 87.066406 299.886719 86.554688 301.207031 86.203125 C 303.417969 85.609375 305.398438 85.761719 307.683594 85.175781 L 310.773438 84.292969 L 310.773438 83.707031 C 309.617188 82.523438 308.792969 80.960938 307.535156 79.890625 C 304.242188 77.089844 300.644531 74.292969 296.941406 71.960938 C 294.886719 70.667969 292.347656 69.828125 290.171875 68.730469 C 289.4375 68.363281 288.152344 68.171875 287.667969 67.554688 C 286.527344 66.101562 285.902344 64.257812 285.023438 62.578125 C 283.175781 59.027344 281.359375 55.152344 279.722656 51.421875 C 278.605469 48.875 277.875 46.363281 276.488281 44.078125 C 269.804688 33.121094 262.609375 26.507812 251.46875 20.007812 C 249.097656 18.625 246.246094 18.078125 243.226562 17.363281 L 238.371094 17.070312 C 237.382812 16.660156 236.355469 15.453125 235.425781 14.867188 C 231.734375 12.539062 222.265625 7.480469 219.535156 14.121094 C 217.808594 18.320312 222.113281 22.414062 223.652344 24.542969 C 224.734375 26.039062 226.121094 27.710938 226.890625 29.386719 C 227.398438 30.492188 227.488281 31.597656 227.921875 32.765625 C 228.992188 35.628906 229.921875 38.769531 231.304688 41.425781 C 232.003906 42.769531 232.777344 44.1875 233.660156 45.390625 C 234.203125 46.128906 235.132812 46.453125 235.277344 47.59375 C 234.371094 48.863281 234.316406 50.828125 233.804688 52.4375 C 231.507812 59.671875 232.375 68.664062 235.71875 74.015625 C 236.746094 75.660156 239.164062 79.183594 242.488281 77.832031 C 245.394531 76.652344 244.734375 72.992188 245.578125 69.761719 C 245.765625 69.027344 245.652344 68.492188 246.023438 68 L 246.023438 68.144531 L 248.671875 73.429688 C 250.628906 76.578125 254.113281 79.871094 257.058594 82.09375 C 258.585938 83.246094 259.804688 85.234375 261.769531 85.910156 L 261.769531 85.761719 L 261.621094 85.761719 C 261.238281 85.164062 260.640625 84.917969 260.148438 84.441406 C 258.996094 83.316406 257.714844 81.917969 256.761719 80.625 C 254.082031 76.996094 251.710938 73.019531 249.554688 68.882812 C 248.523438 66.90625 247.625 64.726562 246.757812 62.71875 C 246.421875 61.941406 246.425781 60.769531 245.726562 60.367188 C 244.777344 61.84375 243.375 63.03125 242.636719 64.773438 C 241.460938 67.554688 241.308594 70.945312 240.871094 74.460938 C 240.613281 74.554688 240.726562 74.488281 240.578125 74.609375 C 238.527344 74.117188 237.808594 72.011719 237.046875 70.203125 C 235.117188 65.636719 234.761719 58.285156 236.457031 53.03125 C 236.894531 51.671875 238.878906 47.386719 238.074219 46.128906 C 237.691406 44.875 236.429688 44.136719 235.71875 43.191406 C 234.847656 42.011719 233.972656 40.449219 233.367188 39.082031 C 231.789062 35.523438 231.050781 31.527344 229.394531 27.925781 C 228.597656 26.207031 227.257812 24.464844 226.15625 22.945312 C 224.933594 21.253906 223.570312 20.003906 222.625 17.96875 C 222.289062 17.238281 221.832031 16.074219 222.328125 15.324219 C 222.378906 15.105469 222.484375 14.914062 222.640625 14.753906 C 222.800781 14.597656 222.992188 14.492188 223.214844 14.445312 C 224.066406 13.789062 226.445312 14.660156 227.332031 15.03125 C 229.691406 16.007812 231.664062 16.941406 233.664062 18.261719 C 234.625 18.882812 235.59375 20.125 236.753906 20.464844 L 238.074219 20.464844 C 240.148438 20.941406 242.46875 20.613281 244.402344 21.199219 C 247.824219 22.234375 250.886719 23.851562 253.671875 25.601562 C 262.15625 30.945312 269.089844 38.550781 273.835938 47.636719 C 274.597656 49.09375 274.929688 50.492188 275.601562 52.039062 C 276.957031 55.152344 278.664062 58.378906 280.015625 61.433594 C 281.363281 64.480469 282.671875 67.558594 284.578125 70.09375 C 285.578125 71.425781 289.445312 72.140625 291.199219 72.882812 C 292.433594 73.402344 294.449219 73.941406 295.613281 74.644531 C 297.84375 75.984375 300 77.582031 302.089844 79.050781 C 303.136719 79.785156 306.347656 81.394531 306.507812 82.71875 Z M 306.503906 82.679688 "/><path style=" stroke:none;fill-rule:evenodd;fill:rgb(0%,38.038635%,54.119873%);fill-opacity:1;" d="M 240.726562 26.75 C 239.648438 26.730469 238.886719 26.867188 238.078125 27.042969 L 238.078125 27.191406 L 238.226562 27.191406 C 238.742188 28.246094 239.648438 28.925781 240.285156 29.832031 L 241.757812 32.914062 L 241.90625 32.769531 C 242.816406 32.128906 243.234375 31.101562 243.226562 29.539062 C 242.863281 29.15625 242.808594 28.675781 242.492188 28.21875 C 242.070312 27.605469 241.242188 27.261719 240.726562 26.75 Z M 240.726562 26.75 "/><path style=" stroke:none;fill-rule:evenodd;fill:rgb(89.408875%,55.688477%,0%);fill-opacity:1;" d="M 303.058594 124.972656 C 303.058594 128.667969 305.988281 131.160156 309.261719 131.160156 C 312.539062 131.160156 315.46875 128.667969 315.46875 124.972656 C 315.46875 121.277344 312.539062 118.785156 309.261719 118.785156 C 305.988281 118.785156 303.058594 121.277344 303.058594 124.972656 Z M 314.078125 124.972656 C 314.078125 127.777344 311.925781 129.875 309.261719 129.875 C 306.566406 129.875 304.445312 127.777344 304.445312 124.972656 C 304.445312 122.167969 306.5625 120.070312 309.261719 120.070312 C 311.925781 120.070312 314.078125 122.167969 314.078125 124.972656 Z M 310.933594 128.503906 L 312.320312 128.503906 L 310.289062 125.402344 C 311.378906 125.289062 312.207031 124.757812 312.207031 123.472656 C 312.207031 122.035156 311.292969 121.441406 309.542969 121.441406 L 306.777344 121.441406 L 306.777344 128.507812 L 307.96875 128.507812 L 307.96875 125.453125 L 309.078125 125.453125 L 310.929688 128.507812 Z M 307.96875 124.460938 L 307.96875 122.429688 L 309.34375 122.429688 C 310.054688 122.429688 310.914062 122.5625 310.914062 123.390625 C 310.914062 124.378906 310.136719 124.460938 309.242188 124.460938 Z M 307.96875 124.460938 "/></g></svg>